<?xml version="1.0" encoding="utf-8"?>
<!-- Generator: Adobe Illustrator 14.0.0, SVG Export Plug-In . SVG Version: 6.00 Build 43363)  -->
<svg version="1.2" baseProfile="tiny" id="Layer_3" xmlns="http://www.w3.org/2000/svg" xmlns:xlink="http://www.w3.org/1999/xlink"
	 x="0px" y="0px" width="610px" height="786px" viewBox="0 0 610 786" xml:space="preserve">
<path fill="#657989" d="M369.441,555.156c-0.439-9.599-0.658-18.288-0.691-22.906c-0.079-11.183-1.75-15.75-3.5-21.25
	s-3.25-21.75-3.5-33s-4.062-61.263-4.062-61.263s-4.007,2.929-6.514,4.513s-9.111,16.257-19.195,30.081
	c-5.229,7.169-16.988,20.426-22.35,32.381c-6.63,14.788-10.089,22.282-17.642,34.993c-7.551,12.711-14.502,16.204-17.174,20.795
	c-2.417,4.154-4.793,11.732-7.648,19.417c0,0-10.25-3.416-16.541-6.078s-17.227-8.969-17.227-8.969
	c4.837-9.7,8.111-17.704,8.602-21.62c0.75-6,7.312-16.655,9.5-21s31.266-77.895,32.976-82.305
	c3.274-8.445,14.155-32.001,14.435-34.703c0.28-2.702-1.16-10.993-2.41-16.993s-1.566-12.33-1.566-12.33S317.816,355.507,335,352
	c24.5-5,61.5-25,61.5-25s18.656,25,18.656,56.382c0,18.493-7.601,63.563-11.229,94.591c-3.628,31.028-1.893,28.983-0.583,39.754
	c1.311,10.771,2.958,21.939,3.59,37.273c0,0-5.228,3.917-17.852,3.417C379.079,558.021,369.441,555.156,369.441,555.156z"/>
<path fill="#657989" d="M377.78,625.259"/>
<path fill="#4F6270" d="M355.535,391.666c0,0,26.118-6.332,39.959-5.166s12.07,5.166,12.07,5.166s-6.886-5.334-28.726,0
	S355.049,404,355.049,404s19.994-8.037,37.74-6c8.711,1,17.211,4,17.211,4s-48.322-9.189-49.911,26.155
	c0,0,1.287-25.154-10.149-6.871c0,0,18.062-8.272-32.938-14.028L352.553,411c0,0-17.553-15.5-43.553-16.5c0,0,34.65,1.5,41.825,7.5
	l-3.463-8L339,364l2.5-3.726l3.75,8.226l9.799,2c0,0,27.951-11.952,35.451-10.226s17.298,4.541,19.5,5.226s-11.5-5-21.5-2.5
	s-35.35,15-37.675,19s8.793-1,8.793-1L355.535,391.666z"/>
<path fill="#4F6270" d="M344,357c-4.666,7,10.334-1.333,0.334-1"/>
<g>
	<path fill="#374B62" d="M307.5,363.5c-3.5,3-8,5.5-11,8.5"/>
	<g>
		<path d="M306.627,362.571c-0.152,0.364,0.093,1.269-0.344,1.305c-0.536,0.045-1.574-0.616-1.731-0.11
			c-0.641,2.086-1.428,4.274-2.89,5.328c-1.042,0.746-1.163,2.686-2.856,2.486c-0.601-0.065-0.744,0.21-0.757,0.803
			c-0.006,0.317-0.302,0.534-0.664,0.501c-0.772-1.092,0.329-0.332,0.747-0.204c0.487,0.145,0.354-0.344,0.342-0.732
			c-0.022-0.709,0.943-0.324,1.242-0.62c0.671-0.638,0.945-2.024,2.02-2.243c0.505-0.094,0.498-0.805,0.705-1.296
			c0.109-0.261,0.749,0.26,0.911,0.077c0.158-0.177-0.287-1.215-0.006-1.246c0.008,0.038,0.047,0.115,0.123,0.239
			c-0.963-1.844,0.306-1.072,0.633-1.281c0.367-0.226,0.584-0.7,0.608-1.344c0.022-0.686,0.756-0.391,1.369-0.321
			c0.642,0.067-0.244-1.725,0.613-1.357"/>
	</g>
</g>
<g>
	<path fill="#374B62" d="M386.5,348c6.5,2,17.5,3.5,22.5,7.5"/>
	<g>
		<path d="M386.229,349.243c0.679-0.011,1.569-0.66,2.105-0.26c0.66,0.501,1.089,1.785,1.923,1.685
			c3.364-0.432,6.752-1.136,9.827-0.187c2.079,0.612,4.917-0.058,6.479,2.172c0.514,0.695,0.98,0.845,1.895,0.935
			c0.493,0.039,1.109,0.479,1.324,0.936c-1.175,0.818-0.74-0.444-0.929-1.012c-0.204-0.643-0.877-0.54-1.422-0.522
			c-1.011,0.136-1.411-1.068-2.192-1.399c-1.679-0.6-3.706-0.264-5.253-1.177c-0.729-0.445-1.573-0.1-2.395-0.006
			c-0.438,0.042-0.601-0.82-1.013-0.869c-0.4-0.047-1.071,0.92-1.448,0.682c0.036-0.028,0.078-0.105,0.13-0.241
			c-0.983,1.881-1.627,0.324-2.267,0.15c-0.711-0.191-1.526-0.153-2.35,0.152c-0.877,0.32-1.412-0.499-2.028-1.121
			c-0.622-0.64-1.976,1.017-2.481,0.026"/>
	</g>
</g>
<path fill="#4F6270" d="M244.5,518.548c0,0,5.5,4.952,13.5,6.452s16.5,3.149,16.5,3.149s-21.5-3.702-27-4.802
	c-5.5-1.099-3.5,0.067-3.5,0.067l9.25,4.733L260,532l-16-3.851l0.5,3.851l11.627,5l6.128,3l-23.236-5.35L244.5,518.548z"/>
<path fill="#4F6270" d="M370.018,555.32c-0.682-6.586-1.056-15.041,0.322-21.789l9.675,6.469h12.774l7.318-6.469L395.494,540
	l-7.74,3.5h-7.739l-4.848-4.984l0.234,6.984l11.001,3h9.092c0,0-11.465,4-15.479,3c-4.014-1-8.979,0.16-8.979,0.16
	s16.622,5.835,25.714,4.34c4.723-0.776,4.854,0.469,3.172,1.635c0,0-4.047,1.457-15.652,0.415
	C375.167,557.232,370.018,555.32,370.018,555.32z"/>
<g>
	<path d="M299.637,384.969c-0.989-8.56-3.074-17.543-3.707-26.009l-0.252-3.866c-0.684,1.154,2.027,0.403,2.868,0.699
		c2.562,0.087,5.115,0.186,7.677,0.217c5.119,0.076,10.279-0.038,15.567-0.749c21.995-1.53,41.462-12.543,60.542-21.855
		c5.062-1.936,9.061-5.791,14.974-6.194c2.624,4.693,5.181,9.435,7.544,14.283c4.72,9.679,8.749,19.853,10.653,30.605
		c3.069,15.262-1.554,30.498-2.789,45.472c-1.995,15.061-4.05,30.053-6.626,44.673c-1.59,9.991-2.354,16.425-2.706,26.786
		c-0.409,5.488-1.701,14.472-2.383,20.053c-1.206-5.446,1.089-11.05,2.259-16.455c1.392-6.35,1.146-12.447,1.573-18.423
		c0.461-10.954,3.041-22.384,4.486-32.901c1.514-11.328,2.989-23.044,4.501-34.859c1.467-11.649,4.098-23.933,1.461-35.873
		c-1.997-11.08-6.346-19.99-11.062-29.365c-1.289-2.502-2.292-4.989-3.314-7.465l-1.584-3.702l-0.866-1.84l-0.462-0.918
		l-0.239-0.459l-0.121-0.229l-0.062-0.114l-0.017-0.029l-0.002-0.003c1.396,0.459-1.902-0.63-1.563-0.517l-0.008,0.003l-0.015,0.007
		l-0.059,0.028c-4.824,2.363-9.428,5.975-14.741,8.234c0.328-0.197,0.568-0.421,0.721-0.682c-5.3,5.173-18.347,9.276-26.712,12.683
		c-9.164,4.255-19.906,6.383-29.602,8.087c-10.396,1.806-20.239,1.568-30.445,1.286c1.48,8.739,4.523,20.89,4.58,30.836"/>
</g>
<g>
	<path d="M297.978,386.461c-1.854,4.265-2.7,9.089-4.7,13.104c-2.414,4.906-5.646,9.216-7.37,14.529
		c-3.065,10.931-7.562,21.208-11.048,32.018c-2.706,10.999-7.38,21.521-12.154,31.663c-3.28,7.012-5.516,14.956-9.652,22.002
		c-4.181,7.032-6.912,13.542-9.293,21.285c-2.141,5.008-3.53,8.229-5.154,13.362c-0.783,2.646-2.708,7.179-4.469,9.816
		c-0.145-3.273,2.603-5.482,4.046-7.974c1.759-2.846,2.583-5.965,3.454-9.096c1.871-5.615,3.696-11.708,5.696-16.484
		c2.044-5.355,5.413-10.59,8.151-16.366c2.774-5.794,4.634-11.798,7.588-17.254c2.664-5.139,4.285-10.019,6.199-15.229
		c1.026-2.772,2.892-4.911,3.864-7.704c0.917-2.725,0.504-6.012,1.752-8.789c-0.029,0.202,0.012,0.392,0.132,0.568
		c-1.215-4.385,3.385-10.344,5.361-14.588c2.207-4.773,3.976-10.103,5.304-15.148c1.438-5.349,4.106-9.807,6.623-14.562
		c2.641-4.922,2.641-11.277,6.055-15.832"/>
</g>
<g>
	<path d="M356.126,416.115c-3.289,3.308-5.573,7.708-8.458,11.085c-3.533,4.155-7.558,7.744-10.305,12.571
		c-5.414,9.858-11.289,19.368-18.156,28.323c-6.3,9.3-10.48,19.73-15.454,29.811c-3.398,7.062-6.657,14.38-10.828,21.382
		c-4.187,7.137-10.672,12.492-15.889,17.689c-3.509,3.731-4.782,6.993-5.991,12.139c-0.65,2.797-2.379,7.304-3.771,9.996
		c-0.485-3.239,2.101-5.511,3.46-8.114c1.641-3.051,2.028-6.042,3.115-8.903c1.901-5.356,7.084-8.779,10.97-12.813
		c8.846-8.83,13.356-21.351,19.324-32.07c2.749-5.094,4.346-9.921,6.57-14.951c1.302-2.629,3.312-4.542,4.793-6.986
		c1.466-2.337,1.848-5.673,3.963-7.893c-0.09,0.184-0.108,0.375-0.052,0.582c0.29-4.54,6.254-8.709,8.987-12.576
		c3.13-4.201,5.998-9.014,8.32-13.627c2.479-4.908,5.954-8.767,9.504-12.803c3.627-4.109,5.623-10.317,10.475-13.335"/>
</g>
<g>
	<path d="M370.148,554.617c-0.31-3.67-1.43-7.605-1.218-11.264c0.252-4.47,1.487-8.806,0.814-13.404
		c-1.268-9.269-3.798-18.292-6.072-27.25c-2.172-9.039-3.008-18.406-3.028-27.672c-0.053-6.437-0.242-13.104-0.425-19.547
		c-0.291-6.306-1.371-12.728-1.323-19.197c0.023-4.373-0.454-7.227-1.256-11.607c-0.513-2.334-0.503-6.344-0.267-8.832
		c1.679,2.329,0.118,4.861-0.175,7.303c-0.327,2.804,0.388,5.4,1.046,7.965c1.117,4.65,0.724,9.773,1.254,14.286
		c1.495,9.548,1.376,20.032,1.103,30.289c-0.234,4.778,0.585,8.958,1.22,13.459c0.344,2.399-0.414,4.674-0.069,7.069
		c0.333,2.328,2.001,4.57,2.257,7.036c-0.068-0.154-0.193-0.27-0.384-0.346c2.918,2.524,2.462,8.528,3.048,12.396
		c0.672,4.283,1.472,8.842,2.392,13.041c0.975,4.469,0.345,8.769-0.062,13.153c-0.435,4.557,2.012,9.343,1.123,13.729"/>
</g>
<g display="none">
	<path display="inline" d="M401.769,509.43c0.379,1.164,1.608,2.353,1.421,3.612c-0.195,1.533-1.476,3.055-1.013,4.544
		c1.898,6.057,3.724,12.319,3.755,18.572c0.012,4.352,1.864,8.877,0.246,13.193c-0.544,1.459-0.423,2.434,0.083,3.925
		c0.271,0.792,0.213,2.14-0.116,2.94c-1.589-0.79-0.013-1.625,0.443-2.417c0.53-0.92-0.006-1.807-0.354-2.692
		c-0.643-1.603,0.484-3.29,0.461-4.843c-0.048-3.34-1.25-6.883-0.721-10.328c0.253-1.612-0.458-3.014-0.829-4.534
		c-0.195-0.812,0.748-1.572,0.656-2.381c-0.086-0.785-1.433-1.574-1.291-2.418c0.044,0.055,0.148,0.097,0.323,0.127
		c-2.493-0.934-0.948-2.943-0.973-4.261c-0.048-1.455-0.403-2.993-1.085-4.37c-0.743-1.459-0.003-2.913,0.357-4.428
		c0.409-1.598-2.144-2.896-1.355-4.447"/>
</g>
</svg>
