<?xml version="1.0" encoding="utf-8"?>
<!-- Generator: Adobe Illustrator 14.0.0, SVG Export Plug-In . SVG Version: 6.00 Build 43363)  -->
<svg version="1.2" baseProfile="tiny" id="Layer_4" xmlns="http://www.w3.org/2000/svg" xmlns:xlink="http://www.w3.org/1999/xlink"
	 x="0px" y="0px" width="610px" height="786px" viewBox="0 0 610 786" xml:space="preserve">
<path fill="#4F5562" d="M366.932,553c0,0,2.618,5.417,20.822,5.417S410.235,553,410.235,553s-11.733,85.678-11.984,88.839
	s-2.394,24.662-1.501,30.162s1.378,38.182-2.075,38.21s-5.771,0.99-16.429,0.99s-15.632,1.739-13.632-10.261
	s9.354-33.364,9.953-45.441C375.166,643.422,366.932,553,366.932,553z"/>
<path fill="#4F5562" d="M231.369,542.701c0,0-28.348,55.452-40.426,85.259c-13.16,32.473-20.109,56.71-22.915,63.257
	c-2.806,6.547-21.394,4.473-21.862,10.083c-0.467,5.611,14.125,5.954,24.792,5.954s16.99-1.661,18.597-6.453
	c1.418-4.226,3.363-9.438,7.861-14.125c4.498-4.687,10.797-7.535,10.797-7.535s0.902,1.069,1.305,6.359
	c0.609,7.988-0.342,20.319-0.342,20.319l5.117-0.059c0,0-0.031-12.521,0.949-20.461c0.98-7.939,4.209-12.223,4.209-12.223
	s2.156-3.277,0.74-11.277c-1.336-7.547-8.055-9.753-3.422-16.129c6.021-8.288,13.672-25.693,30.922-41.907
	s22.551-44.064,22.551-44.064s-12.451-3.398-21.326-7.648S231.369,542.701,231.369,542.701z"/>
<path fill="#303643" d="M228.23,620.511l-9.654,10.616l-9.826,1.538l3.917,7.669l-9.151,12.974l9.234,7.442
	c0,0,7.879,4.699,6.701,12.328c0,0,4.299-12.093-2.451-17.843s3.75-16.735,6.25-20.985s6.959-12.646,6.959-12.646L228.23,620.511z"
	/>
<path fill="#303643" d="M377.78,565.965l2.233,8.036v10l-2.233,8l1.117,9.514v4.397l1.116,10.755l-1.116,8.057l1.116,7.781
	l-2.233,14.535l-3.28,21.46l-3,13l-7.319,23l1.989,5.788l9.33-1.003c0,0-4.833-8.952,0-9.618s8.77-2.666,8.77-2.666l2.439-1.667
	l-3.31-13.834v-21.84v-35.165v-51.161l2.476-11.038l1.879-3.879l-17.72-2.942L377.78,565.965z"/>
<path fill="#303643" d="M401.656,609.646l-4.28,9.996l-2.376,8.19l-2,7.917l-1.25,10.199l-1.5,6.551c0,0-1,4.25,0,5s0.593,8,0.593,8
	l1.946,5c0,0,1.461,5,1.711,6s1.23,6.75,1.23,6.75l1.02,3.25c0,0-2.498-23.25,0.626-42.75S401.656,609.646,401.656,609.646z"/>
<path fill="#303643" d="M208.199,677.834c-1.032-0.167-6.949,0-6.949,0l-5.743,2.666c0,0-2.673,3-3.173,3.667
	s-3.167,4.334-3.167,4.334l-1,3.166c0,0-2,4.667-2,5.167s-2.334,4-2.167,4.5s-2.167,2.333-3,2.5s-4.667,0.896-5.5,1.115
	c-0.833,0.218-6.5,1.052-6.5,1.052s10,2.396,16.5-1.052c6.5-3.448,3.333-9.087,11-17.269c7.667-8.181,12.25-8.848,12.25-8.848
	L208.199,677.834z"/>
<path fill="#303643" d="M191.264,631.75c0,0,0.486,4.25,1.736,5.25s6.2,2.562,6.2,2.562L194.25,638c0,0-5,0.025-5.375,0.263
	c-0.375,0.238-3.375,3.576-3.375,3.576l5.764,4.312c0,0,4.236,2.647,5.236,2.624c1-0.024,2.7,0.976,2.7,0.976l-7.64-2.75h-6.06
	l-1.5,2.75v6l-2,2.75l-2.129,4v3.75l5.629-3.75l10-6.75l6.081-2.5L194,659l-8.5,6l-4.5,4.5l-4,1.5l-3,6.76l-2.606,4.039
	l19.87-54.625V631.75L191.264,631.75z"/>
<path fill="#303643" d="M259.27,558c0,0,1.426,9.775,1.783,10.311c0.357,0.536,0.893,3.567,1.07,4.459
	c0.177,0.893-1.427,7.668-1.427,7.668l-1.427,5.528v1.427c0,0,7.914-16.014,9.1-20.342c1.184-4.328,1.381-6.408,1.381-6.408
	l0.492-0.942l-11.779-3.752L259.27,558z"/>
<g>
	<path d="M243.848,552.834c-1.445,3.243-3.198,7.051-5.695,9.854c-3.193,3.345-6.464,6.719-8.299,11.12
		c-5.818,18.199-15.173,34.823-21.946,52.419c-4.937,12.177-7.261,25.7-10.253,38.115c-0.948,4.3-0.977,7.271-0.526,11.736
		c0.23,2.386,0.188,6.398-0.127,8.922c-1.602-2.377-0.036-4.946,0.437-7.354c0.549-2.78,0.084-5.41-0.137-8.071
		c-0.391-4.836,1.319-9.772,2.278-14.211c2.05-9.744,4.118-20.339,8.621-29.738c2.023-4.396,3.233-8.502,4.895-12.841
		c0.941-2.296,2.764-3.884,3.81-6.084c1.045-2.12,1.044-4.959,2.379-7.137c-0.041,0.168-0.015,0.339,0.088,0.518
		c-0.739-3.918,3.748-8.273,5.407-11.869c1.977-3.944,3.521-8.409,4.834-12.617c1.546-4.441,4.123-8.123,7.308-11.44
		c3.228-3.481,4.535-8.612,7.248-11.82"/>
</g>
<g>
	<path d="M229.949,544.605c0.328,0,1.238-0.558,1.197-0.188c-0.051,0.45-0.845,1.624-0.386,1.573l1.409-0.17
		c0.422-0.174,0.038,0.28,1.111-0.398l-0.483-0.438c-0.602-0.586-1.013-1.17-0.989-1.756c0.018-0.406-0.438-0.82-0.701-1.234
		l-0.089-0.154l-0.034-0.078l-0.008-0.02l-0.004-0.01l-0.002-0.005v-0.002l0,0c-3.628,0,4.941,0,4.059-0.001l0.001-0.002
		l0.013-0.039l0.017,0.297c-0.095,0.521-0.335,1.089-0.987,1.366c-1.111,0.441-0.86,0.302-0.667,0.767
		c0.283,0.303,0.245,0.172-0.062,0.059c-1.422-0.845,0.201-0.043,0.231,0.107l-0.221-0.226c0.211,0.224-0.613-0.67,0.449,0.466
		l-0.032-0.05c-0.063-0.092-0.188-0.278-0.267-0.445c0.113-0.77,1.43-1.135,1.424-1.981c-0.003-0.131-0.033-0.172-0.07-0.262
		c-0.02-0.025-0.041-0.113-0.065-0.086l-0.019,0.029v0.001c-7.087,0-1.965,0-3.546,0v0.001l0.002,0.002l0.002,0.004l0.005,0.008
		l0.01,0.016l0.041,0.061l0.369,0.482c0.235,0.324,0.393,0.65,0.107,0.973c-0.269,0.302,0.421,0.563,0.76,0.851
		c0.178,0.151-0.776,0.291-0.711,0.44c0.063,0.146,1.388,0.304,1.222,0.459c-0.042-0.01-0.146-0.019-0.319-0.024
		c1.236,0.095,1.445,0.233,1.342,0.381l-0.125,0.111l-0.01,0.007l-0.005,0.003l-0.002,0.001v0.001h-0.001
		c0.34-0.142-2.955,1.225-1.561,0.646l0.001-0.004l0.005-0.023l0.012-0.051l0.024-0.102c0.032-0.135,0.06-0.26,0.02-0.307
		c-0.175-0.212-0.576-0.224-1.185,0.008c-0.646,0.244-0.254-0.523-0.082-1.087c0.178-0.584-1.7,0.862-1.201-0.028"/>
</g>
<g>
	<path d="M267.137,559.48c0.098-0.216,0.397-1.209,0.368-0.916c-0.034,0.355-0.334,1.717-0.193,1.381
		c0.572-1.379,1.237-2.953,1.465-2.84c0.127,0.071,0.909-1.632,0.645-0.05c0.011,0.607-0.26,0.257,0.572,0.163
		c0.121,0.005,0.25,0.055,0.362,0.134l0.152,0.142c0.21,0.101,0.583,1.42-0.107,2.119c-1.287,1.002-1.148,0.383-1.4,0.388
		c0.104-0.804,0.143-0.808,0.417-0.65c-0.102,0.452,1.346-0.634,0.896-1.545c-0.016-0.385,0.146-0.429,0.118-0.64
		c-0.244-0.912-0.774-0.47-0.858-0.125c-0.359,0.562-0.08-0.518-0.157-0.51c-0.188,0.01-0.679,1.106-0.636,0.529
		c0.015-0.273-0.229,0.372-0.373,0.685c-0.076,0.164,0.151-0.763,0.104-0.708c-0.047,0.053-0.421,1.322-0.406,1.154
		c0.013-0.041,0.041-0.141,0.087-0.308c-0.676,2.379-0.316,0.779-0.357,0.745c-0.043-0.038-0.167,0.216-0.363,0.777
		c-0.209,0.597-0.05-0.209,0.027-0.727c0.079-0.537-0.55,1.729-0.359,0.765"/>
</g>
<g>
	<path d="M230.126,543.899c-1.809,3.892-3.054,8.438-5.302,12.046c-2.745,4.421-6.248,8.166-8.389,13.024
		c-8.374,19.818-18.063,39.121-25.603,59.121c-5.421,13.858-8.578,29.245-14.348,42.854c-1.988,4.666-2.771,7.921-4.121,12.938
		c-0.632,2.702-2.712,6.989-4.483,9.399c0.009-3.206,2.646-5.073,4.151-7.577c1.671-2.85,2.172-5.946,2.751-8.954
		c1.036-5.445,3.653-10.772,5.286-15.74c3.481-10.928,6.2-22.837,11.086-33.605c2.265-5.02,3.507-9.716,5.385-14.63
		c1.03-2.616,2.911-4.525,4.128-6.999c1.149-2.414,1.234-5.576,2.765-8.04c-0.053,0.188-0.035,0.375,0.06,0.565
		c-0.544-4.251,4.095-9.442,6.219-13.435c2.349-4.438,4.583-9.31,6.332-13.937c1.864-4.929,4.849-8.866,7.668-13.139
		c2.953-4.403,3.521-10.474,6.778-14.502"/>
</g>
<g>
	<path d="M167.122,691.67c-1.916,1.446-4.199,3.461-6.764,3.982c-3.174,0.659-6.304-0.041-9.48,1.034
		c-1.659,0.724-3.501,1.048-5.06,3.387c-0.93,3.809,2.425,4.277,3.627,4.845c3.398,0.967,6.709,0.896,10.023,1.178
		c6.613,0.364,13.254,0.739,19.675,0.578c10.525,0.501,10.101-11.413,16.864-18.517c2.208-2.387,3.791-4.087,6.423-6.143
		c1.402-1.116,3.933-2.33,5.632-2.851c-0.749,2.178-3.041,1.594-4.791,2.005c-1.998,0.514-3.647,2.028-4.834,3.819
		c-2.123,3.143-4.632,5.646-6.203,8.8c-1.574,3.255-2.513,6.746-4.508,9.372c-1.978,2.646-5.511,3.729-9.033,3.498
		c-3.301-0.221-6.267,0.325-9.52,0.354c-1.739,0.049-3.18-1.124-4.871-1.235c-1.634-0.165-3.559,0.943-5.294,0.485
		c0.122-0.023,0.232-0.11,0.335-0.271c-2.494,2.067-6.448-0.057-9.13-1.072c-1.396-0.713-3.234-0.965-4.113-3.204
		c0.082-2.79,2.445-3.291,3.686-4.155c3.24-1.501,6.089-1.173,9.281-1.632c3.312-0.448,5.606-3.803,8.423-4.43"/>
</g>
<g>
	<path d="M208.954,679.495c0.391,2.405,1.609,4.921,1.478,7.325c-0.165,2.96-1.445,5.738-1.146,8.61
		c0.25,2.929,0.296,5.905,0.05,8.913c0.445,0.521-1.045-0.364,0.989,1.31l0.521-0.177c0.345-0.104,0.675-0.199,0.996-0.231
		c0.768-0.169,1.283,0.274,2.54-0.403l-0.301-4.567c-0.424-6.031-0.764-12.298,0.906-18.354c0.811-4.229,3.149-8.581,4.516-12.134
		c1.295-3.512,0.438-6.99-0.591-10.925c-0.74-2.6-2.173-3.916-4.114-6.371c-1.15-1.242-1.958-4.688-0.999-6.622
		c1.228,2-0.221,3.681,0.202,5.736c0.399,2.153,1.964,3.404,3.182,4.553c2.381,2.099,2.507,5.475,2.991,8.021
		c1.488,5.289-3.731,11.425-5.347,18.156c-1.004,3.067-0.778,5.977-0.637,8.964c0.034,1.598-0.954,2.991-0.961,4.575
		c0.016,1.531,1.29,3.177,1.076,4.801c-0.039-0.107-0.14-0.199-0.311-0.274c1.215,1.021,1.352,2.491,1.183,4.017l-0.036,0.287
		l-0.02,0.144l-0.006,0.036l-0.003,0.019v0.005c-0.452,0.428,1.011-0.954-1.013,0.959h-0.003l-0.01-0.001l-0.076-0.01l-0.61-0.087
		c-0.406-0.07-0.827-0.176-1.175-0.276c-0.619-0.216-1.264-0.185-1.895-0.062c-1.102-3.59,0.339-6.004-0.546-8.926
		c-0.482-2.882,0.259-5.555,0.603-8.465c0.368-2.997-2.222-6.004-1.425-8.944"/>
</g>
<g>
	<path d="M215.82,647.321c1.167-2.524,1.748-5.647,3.368-7.915c1.941-2.805,4.985-4.683,6.482-7.793
		c6.37-12.344,14.018-24.788,24.626-34.123c7.328-6.884,11.642-15.276,14.979-24.253c1.373-2.992,1.85-5.161,1.94-8.473
		c0.153-1.766,0.47-4.61,1.037-6.391c1.343,1.866-0.36,3.596-1.14,5.207c-0.913,1.895-0.719,3.881-0.897,5.868
		c-0.202,3.523-2.4,7.133-3.431,10.104c-2.417,6.562-6.922,13.324-12.873,18.251c-2.77,2.308-4.632,4.974-6.834,7.655
		c-1.173,1.427-3.029,1.967-4.21,3.407c-1.188,1.381-1.255,3.719-2.592,5.071c0.045-0.122,0.029-0.268-0.054-0.439
		c0.53,3.363-3.638,5.664-5.309,8.124c-1.897,2.672-3.831,5.599-5.041,8.631c-1.285,3.221-3.722,5.404-5.892,7.987
		c-2.174,2.736-1.932,7.069-4.42,9.464"/>
</g>
<g>
	<path d="M176.262,670.829c0.979-0.692,1.676-2.112,2.799-2.364c1.399-0.273,3.213,0.324,4.309-0.658
		c4.33-4.039,8.28-8.437,13.422-11.061c3.497-1.775,6.725-5.284,11.187-4.941c1.459,0.096,2.3-0.176,3.586-0.998
		c0.695-0.41,2.008-0.514,2.821-0.304c-0.6,1.688-1.512,0.229-2.384-0.108c-0.977-0.363-1.713,0.386-2.444,0.901
		c-1.279,1.014-3.127,0.39-4.502,0.946c-2.966,1.147-5.416,3.614-8.466,4.557c-1.426,0.46-2.249,1.665-3.294,2.646
		c-0.562,0.519-1.622,0.009-2.229,0.434c-0.59,0.408-0.591,1.934-1.336,2.165c0.022-0.062,0.007-0.171-0.051-0.338
		c0.426,2.603-1.939,2.076-2.994,2.644c-1.167,0.64-2.27,1.567-3.135,2.719c-0.933,1.215-2.473,1.121-3.924,1.248
		c-1.465,0.145-1.881,2.897-3.554,2.561"/>
</g>
<g>
	<path d="M178.162,666.009c0.723-0.944,0.993-2.571,2.081-3.103c1.32-0.668,3.256-0.434,4.149-1.62
		c3.65-4.779,7.657-9.653,13.016-12.527c3.632-1.939,7.124-5.511,11.78-5.112c1.521,0.11,2.41-0.138,3.79-0.932
		c0.743-0.396,2.123-0.45,2.966-0.215c-0.7,1.666-1.592,0.18-2.491-0.188c-1.007-0.39-1.809,0.347-2.595,0.847
		c-1.376,0.997-3.284,0.343-4.74,0.905c-3.142,1.153-5.756,3.666-8.921,4.754c-1.481,0.541-2.342,1.787-3.392,2.862
		c-0.564,0.567-1.685,0.123-2.301,0.61c-0.598,0.475-0.521,2.016-1.276,2.318c0.02-0.063-0.002-0.174-0.071-0.336
		c0.602,2.582-1.841,2.296-2.867,3.028c-1.132,0.8-2.144,1.916-2.831,3.22c-0.734,1.377-2.273,1.581-3.688,2.086
		c-1.474,0.529-1.09,3.318-2.777,3.502"/>
</g>
<g>
	<path d="M185.202,645.512c0.971,0.105,2.31-0.515,3.136,0.092c1.027,0.71,1.512,2.414,2.717,2.618
		c5.017,0.565,10.306,1.938,14.344,5.019c2.811,2.094,6.8,3.063,8.415,6.537c0.549,1.167,1.212,1.589,2.454,1.979
		c0.663,0.21,1.439,0.944,1.729,1.622c-1.534,0.779-1.008-0.836-1.195-1.597c-0.217-0.879-1.106-0.938-1.874-1.134
		c-1.396-0.349-1.713-2.073-2.682-2.87c-2.118-1.688-5.056-2.598-6.965-4.682c-0.886-0.999-2.2-1.138-3.431-1.516
		c-0.646-0.215-0.617-1.34-1.203-1.649c-0.577-0.29-1.812,0.425-2.316-0.027c0.061-0.016,0.146-0.084,0.261-0.218
		c-1.982,1.716-2.476-0.448-3.392-0.997c-0.976-0.641-2.271-0.832-3.52-0.792c-1.336,0.073-1.979-1.174-2.916-2.019
		c-0.979-0.926-2.939,0.865-3.703-0.455"/>
</g>
<g>
	<path d="M183.957,638.545c1.051,0.006,2.499-0.854,3.478-0.168c1.233,0.716,1.808,2.534,3.153,2.729
		c5.497,1.075,11.266,3.741,15.386,7.791c2.889,2.826,7.075,4.513,8.803,8.354c0.585,1.316,1.353,1.811,2.689,2.318
		c0.72,0.262,1.602,1.029,1.972,1.761c-1.547,0.789-1.159-0.921-1.4-1.706c-0.282-0.93-1.218-1.059-2.056-1.328
		c-1.51-0.515-1.856-2.387-2.876-3.363c-2.215-2.095-5.346-3.594-7.248-6.21c-0.909-1.215-2.315-1.633-3.613-2.303
		c-0.688-0.359-0.561-1.551-1.196-1.979c-0.616-0.421-2.044,0.125-2.535-0.49c0.065-0.001,0.162-0.057,0.295-0.172
		c-2.264,1.402-2.646-0.988-3.68-1.647c-1.082-0.774-2.473-1.236-3.857-1.298c-1.482,0.012-2.211-1.306-3.336-2.171
		c-1.201-1.023-3.124,1.027-4.146-0.186"/>
</g>
<g>
	<path d="M385.844,562.394c-1.677-1.724,0.084,1.107-0.267,2.012c0.136,1.344,0.126,2.682-0.091,4
		c-0.587,3.093-2.263,5.967-2.169,9.171c0.279,13.114,0.999,26.227,0.338,39.198c-0.545,9.064,1.377,18.381-0.218,27.407
		c-0.531,3.047-0.396,5.08,0.132,8.166c0.281,1.649,0.247,4.419-0.068,6.152c-1.601-1.635-0.042-3.399,0.403-5.07
		c0.515-1.931-0.033-3.759-0.395-5.595c-0.66-3.322,0.45-6.861,0.419-10.087c-0.056-6.93-1.146-14.295-0.21-21.432
		c0.389-3.322-0.09-6.282-0.239-9.482c-0.072-1.711,0.966-3.184,1.014-4.865c0.05-1.632-1.15-3.444-0.862-5.18
		c0.034,0.118,0.131,0.22,0.298,0.307c-2.325-2.283-0.401-6.266-0.118-8.996c0.29-3.028,0.298-6.304-0.035-9.317
		c-0.354-3.203,0.718-6.058,1.504-9.095c0.367-1.518,0.072-3.334-0.135-4.945c-0.117-0.818-0.242-1.607-0.312-2.288
		c-0.022-0.356-0.106-0.49-0.054-0.686c0.222,0.731,1.411,0.897,1.614,0.424"/>
</g>
<g>
	<path d="M366.779,554.188c0.13,4.437,1.584,8.994,1.747,13.271c0.214,5.261-0.448,10.341,0.083,15.479
		c1.213,10.854,2.795,21.573,4.368,32.312c1.717,10.774,0.887,21.787,2.216,32.312c0.805,7.823-0.359,15.646-1.789,23.218
		c-1.709,7.243-2.392,15.366-6.237,22.089c-2.148,4.473-3.375,7.93-3.063,12.591c0.069,2.775,1.809,4.534,4.842,4.544
		c-2.755,1.852-5.01-1.181-4.377-3.118c0.053-2.415,0.282-5.397,0.735-8.334c0.794-5.417,4.693-10.267,5.537-16.024
		c1.987-11.127,5.175-23.416,4.312-35.717c-0.365-5.439-1.029-10.265-1.371-15.571c-0.18-2.829,0.794-5.396,0.638-8.223
		c-0.112-2.751-1.664-5.546-1.735-8.441c0.059,0.187,0.175,0.334,0.356,0.441c-2.752-3.279-1.714-10.249-2.046-14.784
		c-0.278-5.086-0.886-10.367-1.771-15.415c-0.658-5.111-0.491-9.994-0.569-15.18c-0.098-5.292-2.961-10.871-1.845-16.172"/>
</g>
<g>
	<path d="M408.77,553.766c0.291,3.834,0.696,8.542-0.071,12.552c-0.996,4.959-3.07,9.497-3.494,14.63
		c-1.328,20.838-4.381,41.734-7.375,62.225c-1.957,14.479,0.161,29.339-0.924,43.846c-0.471,4.922-0.286,8.163-0.025,13.217
		c-0.323,2.766,0.768,7.121-3.27,10.64c2.027-4,2.293-5.867,3.479-8.842c0.778-3.152,0.271-6.158-0.067-9.121
		c-0.628-5.354,0.273-11.082,0.129-16.223c-0.588-11.083-1.13-22.874,0.812-34.239c0.87-5.253,0.997-9.971,1.614-15.057
		c0.342-2.715,1.742-4.945,2.241-7.598c0.509-2.56-0.28-5.571,0.305-8.304c0.011,0.188,0.088,0.354,0.239,0.503
		c-1.88-3.756,0.835-9.983,1.574-14.314c0.823-4.812,1.385-9.997,1.533-14.804c0.157-5.117,1.667-9.664,2.84-14.499
		c1.148-4.954-0.325-10.869,0.448-15.174"/>
</g>
<g>
	<path d="M368.487,710.708c0.629-0.262,1.308-1.335,2.017-1.082c0.863,0.273,1.607,1.734,2.447,1.418
		c3.455-1.336,7.405-2.335,10.874-1.723c2.476,0.445,5.14-1.046,7.352,0.688c0.774,0.63,1.335,0.437,2.136-0.077
		c0.429-0.282,1.131-0.247,1.601,0.068c-0.346,1.599-0.904,0.042-1.323-0.403c-0.496-0.515-0.953,0.034-1.448,0.396
		c-0.906,0.639-1.781-0.595-2.613-0.624c-1.814-0.106-3.974,0.77-5.818-0.113c-0.859-0.411-1.756,0.133-2.678,0.332
		c-0.489,0.104-0.757-0.905-1.228-0.913c-0.455-0.008-1.119,1.229-1.565,0.988c0.037-0.037,0.078-0.135,0.123-0.303
		c-0.925,2.366-1.781,0.62-2.531,0.504c-0.816-0.148-1.728,0.073-2.544,0.635c-0.861,0.614-1.599-0.337-2.43-0.778
		c-0.906-0.491-1.618,1.898-2.482,0.957"/>
	<path d="M219.373,600.082c-0.739-3.918,3.748-8.273,5.407-11.869c1.977-3.944,3.521-8.409,4.834-12.617"/>
	<path d="M216.435,568.97c-8.374,19.818-18.063,39.121-25.603,59.121"/>
	<path d="M179.143,706.674c10.525,0.501,10.101-11.413,16.864-18.517"/>
	<path d="M210.33,705.43c-1.102-3.59,0.339-6.004-0.546-8.926c-0.482-2.882,0.259-5.555,0.603-8.465"/>
	<path d="M250.296,597.49c7.328-6.884,11.642-15.276,14.979-24.253"/>
	<path d="M383.631,596.789c0.034,0.118,0.131,0.22,0.298,0.307c-2.325-2.283-0.401-6.266-0.118-8.996"/>
	<path d="M368.609,582.938c1.213,10.854,2.795,21.573,4.368,32.312"/>
	<path d="M405.204,580.947c-1.328,20.838-4.381,41.734-7.375,62.225"/>
	<path d="M381.032,709.588c-0.489,0.104-0.757-0.905-1.228-0.913c-0.455-0.008-1.119,1.229-1.565,0.988"/>
</g>
<g>
	<path d="M373.364,655.533c0.755,0.654,2.224,0.932,2.543,1.916c0.396,1.195-0.114,2.935,0.882,3.754
		c4.052,3.342,8.292,6.49,11.401,10.288c2.256,2.71,5.848,3.855,7.506,6.849c0.626,0.984,1.396,1.323,2.534,1.146
		c0.607,0.023,1.342,0.049,1.853,0.516c-0.665,1.471-1.154-0.133-1.423-0.701c-0.385-0.755-1.092-0.316-1.827-0.378
		c-1.37,0.022-1.791-1.688-2.68-2.347c-1.932-1.521-4.719-2.788-6.04-5.247c-0.604-1.144-1.836-1.578-2.845-2.352
		c-0.544-0.409-0.141-1.45-0.567-1.932c-0.418-0.463-1.881-0.216-2.146-0.859c0.061,0.012,0.165-0.021,0.322-0.099
		c-2.478,0.776-2.078-1.477-2.652-2.354c-0.646-0.98-1.586-1.855-2.72-2.475c-1.213-0.658-1.167-2.058-1.408-3.332
		c-0.255-1.333-2.922-1.04-2.799-2.547"/>
</g>
<g>
	<path d="M374.909,653.923c0.808,0.235,2.249-0.158,2.782,0.683c0.7,0.944,0.457,2.695,1.485,3.164c4.162,2.17,8.32,5.33,10.97,9.15
		c1.901,2.73,5.266,4.172,6.284,7.377c0.358,1.137,1.04,1.489,2.156,1.72c0.603,0.117,1.324,0.57,1.641,1.171
		c-1.257,1.091-1.002-0.6-1.158-1.227c-0.19-0.788-0.961-0.736-1.688-0.854c-1.285-0.299-1.382-1.941-2.107-2.754
		c-1.617-1.729-4.155-3.152-5.188-5.595c-0.478-1.144-1.647-1.612-2.594-2.361c-0.504-0.4-0.04-1.411-0.459-1.87
		c-0.403-0.448-1.842-0.174-2.079-0.783c0.059,0.009,0.162-0.025,0.316-0.106c-2.445,0.871-2-1.28-2.626-2.06
		c-0.66-0.869-1.646-1.567-2.793-1.903c-1.214-0.34-1.338-1.615-1.869-2.697c-0.592-1.203-2.849,0.183-3.177-1.158"/>
</g>
<g>
	<path d="M372.235,675.334c0.736-0.629,1.135-1.992,2.047-2.129c1.139-0.131,2.753,0.502,3.508-0.447
		c3.12-3.7,5.153-7.847,8.383-10.806c2.243-2.045,3.281-5.641,6.659-6.529c1.109-0.313,1.583-0.823,2.064-1.918
		c0.264-0.581,1.033-1.168,1.688-1.297c0.542,1.625-0.873,0.771-1.609,0.799c-0.846,0.028-0.995,0.859-1.249,1.534
		c-0.44,1.231-2.046,1.23-2.857,1.997c-1.719,1.646-2.682,4.27-4.84,5.487c-1.009,0.567-1.243,1.766-1.831,2.714
		c-0.313,0.512-1.331,0.137-1.708,0.556c-0.368,0.401,0.061,1.807-0.506,2.057c0.004-0.057-0.037-0.155-0.129-0.305
		c1.012,2.347-1.155,1.962-1.89,2.504c-0.81,0.649-1.595,1.443-2.138,2.514c-0.601,1.12-1.873,1.064-3.092,1.039
		c-1.202,0.006-1.256,2.663-2.65,2.267"/>
</g>
<g>
	<path d="M369.336,679.981c0.967-0.433,1.787-1.662,2.771-1.571c1.22,0.176,2.756,1.163,3.795,0.293
		c4.312-3.125,6.885-7.312,10.312-10.397c2.445-2.148,3.431-5.916,6.864-7.151c1.145-0.426,1.597-1.03,2.031-2.207
		c0.234-0.628,0.99-1.321,1.661-1.539c0.672,1.584-0.857,0.902-1.611,1.02c-0.868,0.133-0.969,1-1.193,1.728
		c-0.396,1.321-2.068,1.471-2.873,2.331c-1.728,1.815-2.705,4.63-5.03,5.897c-1.074,0.585-1.345,1.865-2.068,2.793
		c-0.379,0.516-1.399,0.096-1.827,0.507c-0.42,0.387-0.127,1.88-0.764,2.088c0.013-0.058-0.017-0.159-0.09-0.316
		c0.707,2.451-1.549,1.886-2.395,2.356c-0.941,0.621-1.979,1.2-2.803,2.204c-0.909,1.035-2.242,0.76-3.507,0.407
		c-1.238-0.29-2.105,2.289-3.438,1.559"/>
</g>
<g>
	<path d="M375.558,647.989c0.51-0.3,0.976-1.407,1.584-1.196c0.747,0.253,1.503,1.553,2.157,1.183
		c2.656-1.706,5.854-3.152,8.794-2.821c2.068,0.24,4.3-1.374,6.147,0.33c0.64,0.597,1.104,0.44,1.794-0.056
		c0.368-0.271,0.963-0.217,1.342,0.11c-0.364,1.589-0.755,0.019-1.098-0.438c-0.402-0.526-0.811,0.009-1.231,0.356
		c-0.768,0.634-1.481-0.56-2.184-0.577c-1.528-0.052-3.305,0.938-4.87,0.218c-0.73-0.346-1.463,0.274-2.212,0.566
		c-0.397,0.148-0.683-0.827-1.073-0.79c-0.381,0.033-0.842,1.327-1.226,1.16c0.027-0.042,0.054-0.146,0.078-0.317
		c-0.569,2.461-1.402,0.805-2.032,0.768c-0.68-0.038-1.399,0.308-2.014,0.92c-0.646,0.65-1.331-0.129-2.072-0.535
		c-0.791-0.438-1.179,1.982-1.982,1.098"/>
</g>
<g>
	<path d="M375.097,652.023c0.59-0.241,1.198-1.288,1.776-1.009c0.713,0.349,1.42,1.704,2.127,1.323
		c2.789-1.584,5.722-3.312,8.714-2.984c2.014,0.209,4.467-1.275,6.2,0.659c0.571,0.665,1.037,0.624,1.833,0.254
		c0.425-0.197,1.036-0.032,1.347,0.355c-0.725,1.481-0.755-0.117-1.035-0.632c-0.318-0.594-0.845-0.146-1.321,0.122
		c-0.863,0.496-1.425-0.778-2.171-0.851c-1.595-0.205-3.395,0.736-4.951,0.035c-0.736-0.362-1.46,0.315-2.186,0.614
		c-0.387,0.159-0.697-0.812-1.086-0.764c-0.375,0.054-0.779,1.383-1.164,1.214c0.025-0.042,0.047-0.146,0.065-0.318
		c-0.479,2.475-1.36,0.82-1.981,0.824c-0.676-0.007-1.379,0.285-2.021,0.9c-0.688,0.652-1.37-0.141-2.073-0.645
		c-0.718-0.528-1.46,1.835-2.168,0.863"/>
</g>
<g>
	<path d="M409.186,551.284c-0.709,0.087-0.99,1.099-1.229,0.946c-0.388-0.302-1.782-0.957-1.913-0.177
		c0.255,1.019-0.317,0.521,1.145,2.383c0.493-0.258,0.818-0.604,0.968-0.872c0.157-0.2,0.161-0.663,0.174-0.846l0.022-0.237
		l0.036-0.06l0.007-0.005l0.003-0.001c-1.04-1.767,1.417,2.407,1.162,1.979l0,0l0,0l-0.001,0.002l-0.003,0.006l-0.011,0.018
		l-0.023,0.027c-0.114,0.102,0.031,0.502,0.201,0.653c0.104,0.13,0.188,0.188,0.142,0.171c-0.023-0.007-0.081-0.029-0.187-0.062
		l-0.193-0.054l-0.126-0.029l-0.071-0.014l-0.02-0.004l-0.005-0.002c0.494,1.44-0.675-1.964-0.555-1.612l0,0l-0.002,0.001
		l-0.005,0.001l-0.022,0.005c-0.403-0.344-0.34,1.388-0.569-0.259c0.001-0.309,0.062-0.307,0.226-0.03
		c0.418,1.553-0.155,0.104-0.262-0.315c-0.04-0.117-0.062-0.173-0.075-0.181h-0.004h-0.001h-0.001l0,0l0,0l0,0
		c0.121,0.663-0.271-1.482,0.271,1.486v-0.002l-0.003-0.013l-0.008-0.047l-0.006-0.092l0.098-0.321l0.222-0.184l0.1-0.005h0.007
		l0.003-0.001h0.001h0.001l0,0c-0.104-0.333,0.906,2.899,0.479,1.532h0.002h0.017l0.034,0.004l0.076,0.01
		c0.214,0.033,0.474,0.141,0.467,0.125c-0.188-0.07-0.662-1.049-0.205-0.731l0.04,0.028l0.006-0.005l0.001-0.001l0,0l0,0
		c-2.545-4.324-0.705-1.199-1.272-2.164l0,0h-0.001h-0.001l-0.004,0.002l-0.005,0.016l0.063,0.167c0.07,0.159,0.16,0.405,0.171,0.6
		c-0.014,0.217-0.45-0.619-0.436-0.529c0.028,0.119,0.237,1.375,0.045,1.204c0.005-0.042,0.001-0.144-0.015-0.315
		c0.013,2.466-0.733,0.764-0.774,0.705c-0.902-1.092-0.385-0.815-0.956-1.676c-0.218-0.76,0.803-0.725,1.366-0.327
		c0.188,0.345,0.858-2.012,1.482-0.843"/>
</g>
<g>
	<path d="M367.517,554.754c0.046-0.268-0.182-1.291,0.077-1.082c0.318,0.256,0.958,1.5,1.002,1.095
		c0.13-0.639,0.056-1.994,0.689-2.011c0.38,0.699,0.604,1.027,0.521,1.383c-0.035,0.117,0.041,0.265,0.154,0.407l0.187,0.212
		l0.048,0.051l0.006,0.008l0.002,0.001v0.001c-4.715-0.571-1.311-0.159-2.363-0.286l-0.008-0.001l-0.032-0.002l-0.13-0.008
		l-0.259-0.011c-0.257-0.017-0.889,0.02-0.833,0.018c-0.146,0.002-0.195,0.072-0.192-0.069c0.012-0.051,0.054-0.11,0.137-0.187
		l0.155-0.128l0.05-0.035l0.026-0.02l0.013-0.01l0.005-0.003l0.002-0.001l0.001-0.001c4.765-3.634,1.319-1.007,2.384-1.817
		l-0.001,0.01l-0.022,0.158c-0.107,0.599,0.062,0.566,0.604,0.334c0.289-0.124,0.459,0.072,0.344,0.392
		c-1.22,1.055-0.22-0.138-0.054-0.582c0.204-0.504-0.286-0.201-0.617-0.008c-0.153,0.088-0.236,0.088-0.283,0.034l-0.047-0.113
		l-0.01-0.079l-0.001-0.011v-0.004v-0.001v-0.001c-0.959,0.731,2.146-1.637-2.149,1.64v0.001l-0.003,0.003l-0.015,0.013
		l-0.028,0.025c-0.161,0.14-0.401,0.281-0.368,0.343c0.044,0.081,0.141,0.112,0.244,0.087c0.574,0.076-1.193-0.159,3.075,0.208
		c-0.188-0.221-0.288-0.467,0.03-0.578c0.285-0.104-0.317-0.424-0.552-0.726c-0.121-0.167,0.781,0.148,0.748,0.058
		c-0.035-0.086-1.157-0.815-0.961-0.848c0.033,0.026,0.119,0.086,0.268,0.178c-0.212,1.549-0.321,0.66-0.632,0.479
		c-0.181,0.023-0.298,0.339-0.254,0.943c0.036,0.663-0.395-0.049-0.764-0.463c-0.395-0.425,0.309,1.824-0.23,0.98"/>
</g>
<g>
	<path d="M407.351,553.995c0.059-0.235,0.148-1.325,0.338-1.036c0.253,0.359-0.124,1.733-0.032,1.377
		c0.13-0.146,0.344-0.246,0.521-0.371l0.283-0.174l0.036-0.021l0.005-0.002l0.002-0.002h0.001c-0.961,1.599,1.312-2.178,1.076-1.789
		l-0.009,0.005l-0.02,0.007l-0.07,0.025l-0.146,0.051c-0.391,0.13-0.802,0.225-1.204,0.262c-0.412,0.007-0.794,0.058-1.032,0.115
		l-0.312,0.017l-0.114-0.035l-0.049-0.032l-0.023-0.02l-0.011-0.011l-0.006-0.006l-0.002-0.003l-0.001-0.001l0,0
		c-0.291,0.407,2.525-3.56,1.334-1.88l0.002,0.002c0.435,0.538,2.222-0.274,1.593,1.269c-0.195,0.533,0.029,0.547,0.484,0.248
		c0.014-0.187-0.169-0.366-0.423-0.365c-0.351,0.396-0.312,1.322-0.077,1.771c-0.415-1.206-0.057-1.004,0.527-1.792
		c0.665-0.163-0.06-0.03-0.281,0.24c-0.602,0.347-0.043-0.61-0.224-0.762c-0.203-0.154-0.612-0.117-0.978-0.146l-0.451-0.127
		l-0.131-0.152l-0.029-0.105l-0.004-0.062v-0.016v-0.01c1.206-1.697-1.643,2.313-1.349,1.9v0.001l0,0v0.002l0.001,0.005l0.003,0.035
		c-0.002,0.356,0.396-0.188,0.795-0.327c0.217-0.063-0.318,0.719-0.215,0.699c0.133,0.018,1.178-0.805,1.155-0.604
		c-0.035,0.025-0.11,0.097-0.232,0.222c1.778-1.726,0.876-0.322,1.043-0.137l0.149,0.09c-1.121,2-0.438,0.573-0.758,1.058
		c-0.169,0.073-0.365,0.219-0.585,0.44c-0.375,0.55-0.012-0.244-0.182-0.769c-0.225-0.565-0.156,1.854-0.432,0.886"/>
</g>
<g>
	<path d="M368.315,551.053c-0.047,0.293,0.35,1.264,0.106,1.072c-0.302-0.229-1.159-1.332-1.088-0.949
		c0.156,0.774,0.356,1.59,0.438,2.248l0.034,0.463l-0.003,0.205l-0.007,0.094l-0.005,0.046l-0.002,0.021h-0.001
		c0.875,1.383-1.191-1.883-0.979-1.547v-0.001v-0.003l0.001-0.005l0.001-0.011c0.02-0.224,0.081-0.382,0.204-0.449
		c0.173-0.094,0.084-0.582,0.104-0.911l0.013-0.114l0.011-0.05l0.005-0.011l0.002-0.006l0.001-0.004l0,0
		c0.403,1.239-0.906-2.777,0.906,2.78l0.001-0.001l0.003-0.003l0.027-0.043c0.074-0.119,0.116-0.259,0.112-0.403
		c-0.092-0.49-0.142-0.253,0.136-0.13c0.958,0.541,0.033,0.086,0.708,0.69c0.155,0.296-0.106,0.588-0.452,0.497
		c-1.064-1.217,0.136-0.229,0.671-0.217c0.625-0.024,0.114-0.259-0.173-0.485c-1.115-0.632-1.009-0.911-0.892-0.403l-0.045,0.32
		l-0.073,0.143l-0.022,0.033v0.001c-0.342-1.146,0.764,2.563-0.766-2.566v0.002v0.001v0.003l-0.001,0.006v0.012l-0.001,0.051
		l0.012,0.437c0.002,0.281-0.041,0.498-0.327,0.348c-0.269-0.145,0.01,0.499,0.083,0.857c0.972,1.431,0.801,1.037,1.056,1.303
		c0.031-0.094-0.603-1.26-0.451-1.156c0.018,0.038,0.069,0.127,0.158,0.276c-1.239-2.14-0.224-0.846-0.108-0.893
		c0.124-0.049,0.091-0.354-0.119-0.924c-0.221-0.606,0.332,0.015,0.722,0.383c0.359,0.406-0.604-1.75,0.041-0.986"/>
</g>
<g>
	<g>
		<path d="M136.782,569.061l-0.142,0.19c0.116,0.022,0.35,0.022,0.473-0.008c-0.082-0.174-0.188-0.149-0.352-0.112"/>
		<path d="M137.606,568.823c0.005-0.267,0.279-0.277,0.481-0.194l-0.435,0.171"/>
		<path d="M138.585,567.374c0.009,0.119-0.069,0.156,0.028,0.276c0.137-0.074,0.041-0.123,0.042-0.135"/>
		<path d="M138.818,568.212c0.127,0.06,0.215,0.062,0.34-0.122l-0.136-0.153c-0.095,0.084-0.217,0.209-0.251,0.3"/>
		<path d="M140.439,567.493c0.325-0.136,0.507-0.173,0.661-0.481c0.145-0.287-0.003-0.537,0.3-0.727
			c-0.328-0.354,0.494-0.443,0.652-0.301c0.469-0.548,0.954,0.069,1.028,0.554c-0.438,0.036-0.692,0.206-1.012,0.398
			c-0.293,0.18-0.528,0.604-0.873,0.585c-0.196-0.479-0.595,0.216-0.919-0.137"/>
		<path d="M143.399,566.185c-0.001,0.103-0.005,0.177,0.052,0.264c0.066-0.198,0.189-0.3,0.357-0.191l-0.155,0.156
			c0.146,0.022,0.258-0.012,0.4-0.079c-0.16-0.335-0.868-0.309-0.647,0.021"/>
		<path d="M144.053,564.887c-0.07,0.125-0.119,0.207-0.041,0.34l0.287-0.092l-0.031-0.145c0.244,0.166,0.528,0.104,0.739-0.073
			c0.037-0.007-0.095-0.086-0.088-0.077l-0.17,0.096c-0.018-0.577-0.461,0.107-0.815-0.065"/>
		<path d="M144.7,565.799c-0.049-0.094-0.1,0.03-0.091-0.082l0.215-0.178c-0.01,0.209,0.014,0.201-0.223,0.281l0.047-0.174"/>
		<path d="M142.495,565.572c0.182-0.203,0.703-0.318,0.753,0.041c0.053,0.36-0.46,0.299-0.344-0.14l-0.341,0.128"/>
		<path d="M146.013,564.759c0.496-0.167,0.677-0.855,1.333-0.501c0.228-0.339,0.6-0.772,1.01-0.296
			c0.143-0.298,0.469-0.276,0.606-0.544l0.148,0.279c0.383-0.312,0.8-0.102,0.651,0.436c0.179-0.022,0.364-0.006,0.496,0.052
			c-0.148,0.211-0.429,0.163-0.607,0.33c-0.157,0.147-0.191,0.479-0.317,0.667c-0.222-0.033-0.425-0.17-0.492-0.398l-0.16,0.143
			l0.022,0.141c-0.162,0.075-0.353,0.07-0.518-0.011l0.005-0.282c-0.138,0.133-0.381,0.215-0.573,0.209
			c0.067,0.139,0.012,0.283,0.048,0.411c-0.08-0.014-0.202,0.041-0.305,0.002c0.274,0.541-0.563,0.523-0.633-0.068
			c-0.242-0.018-0.489-0.12-0.677,0.033c-0.202-0.278-0.332,0.021-0.564-0.026c0.226-0.213,0.497-0.296,0.683-0.454l-0.161-0.117
			C146.027,564.611,146.012,564.76,146.013,564.759"/>
		<path d="M144.012,565.569c0.188-0.187,0.232-0.169,0.439-0.26c0.172-0.071,0.225-0.224,0.452-0.137
			c0.204,0.076,0.22,0.148-0.011,0.222c0.003-0.001-0.137-0.031-0.177-0.021l-0.233,0.1c-0.088-0.211-0.354,0.105-0.473,0.152
			l-0.065-0.089"/>
		<path d="M150.53,564.114c0.154-0.067,0.582-0.276,0.702-0.098c-0.07,0.113-0.597,0.29-0.678,0.091"/>
		<path d="M150.333,563.641c0.116,0.028,0.762-0.479,0.829-0.239c0.058,0.205-0.345,0.12-0.422,0.137l-0.389,0.18"/>
		<path d="M151.478,563.817c0.189,0.051,0.423-0.153,0.435-0.347l0.471-0.129c-0.016-0.095-0.045-0.148-0.141-0.185
			c0.09-0.394,0.726-0.688,1.106-0.711c0.409-0.029,0.423,0.211,0.468,0.536c0.018,0.13-0.088,0.075,0.003,0.195
			c0.05,0.064,0.21,0.07,0.276,0.156c-0.185,0.336-0.549,0.097-0.654-0.191c-0.046,0.135,0.047,0.252,0.021,0.371
			c-0.027,0.126-0.027,0.068-0.098,0.172c-0.131,0.203-0.277,0.228-0.506,0.271c-0.233,0.046-0.466,0.107-0.701,0.104
			c-0.274-0.006-0.413-0.104-0.638-0.176"/>
		<path d="M151.969,565.04c-0.17,0.284,0.293,0.267,0.462,0.333c0.114-0.416-0.349-0.387-0.537-0.203"/>
		<path d="M149.051,565.729c0.117,0.084,0.424,0.152,0.37-0.09L149.051,565.729"/>
		<path d="M154.525,563.25c-0.162-0.076-0.018-0.202,0.115-0.243c0.157-0.049,0.163,0.091,0.285-0.052
			c0.066-0.08,0.042-0.213,0.077-0.289c0.062-0.121,0.184-0.186,0.203-0.331c0.051,0.056,0.201,0.132,0.224,0.2
			c0.043,0.137-0.126,0.198-0.075,0.309c0.105,0.233,0.501-0.087,0.663,0.027c0.069-0.141,0-0.274,0.04-0.414
			c0.036-0.133,0.184-0.305,0.242-0.438c0.039,0.14,0.194,0.135,0.245,0.235c0.057,0.115-0.073,0.265-0.048,0.371
			c0.074,0.309,0.241-0.043,0.452,0.188c-0.121,0.321-0.132,0.188-0.402,0.216c-0.316,0.029-0.253,0.177-0.192,0.431
			c-0.155-0.008-0.634-0.07-0.703-0.24c-0.138,0.084-0.461,0.123-0.379,0.368c-0.239,0.04-0.28-0.052-0.492-0.11
			c-0.187-0.057-0.367,0.026-0.286-0.248"/>
		<path d="M157.188,561.939c0.047,0.229-0.021,0.516,0.144,0.702c0.168-0.129,0.38,0.039,0.378,0.244
			c-0.001,0.111-0.179,0.236-0.253,0.28c-0.219,0.129-0.667-0.263-0.487,0.152c0.163,0.375,0.888,0.269,1.007-0.1
			c0.074-0.229-0.253-0.36-0.17-0.537c0.088-0.184,0.31,0.027,0.389,0.123c0.137-0.127,0.33-0.132,0.442-0.242
			c0.129-0.13,0.084-0.392,0.341-0.323c0.188-0.333-0.233-0.193-0.358-0.17c0.115-0.424-0.179-0.267-0.327-0.562
			c-0.231,0.188-0.138,0.289-0.442,0.193c-0.153-0.047-0.097-0.162-0.259-0.07c-0.099,0.058-0.144,0.166-0.102,0.263
			c-0.108-0.011-0.256,0-0.324,0.075"/>
		<path d="M159.512,562.413c0.227-0.271,0.438-0.078,0.733-0.149c0.222-0.046,0.367-0.18,0.555,0.044
			c-0.084,0.149-0.162,0.274-0.298,0.312c-0.108,0.028-0.264-0.003-0.296-0.122c-0.07,0.173-0.279,0.35-0.271,0.021
			c-0.149,0.022-0.496,0.026-0.477-0.195"/>
		<path d="M159.345,561.771c0.064,0.117,0.232,0.191,0.348,0.111c0.103-0.072,0.033-0.217,0.193-0.209
			c-0.148,0.311,0.377,0.114,0.502,0.129c0.343,0.035,0.263,0.052,0.513-0.129c0.075-0.055,0.183-0.117,0.28-0.09
			c-0.244-0.264-0.525-0.311-0.801-0.135c-0.088,0.053-0.264,0.184-0.357,0.203l-0.361-0.029l-0.355,0.153"/>
		<path d="M162.274,561.275c0.182-0.043,0.048-0.398,0.119-0.535c0.059-0.107,0.399-0.231,0.504-0.195
			c0.187,0.062,0.183,0.303,0.142,0.453c-0.079,0.291-0.21,0.258-0.453,0.208l0.139,0.146l0.066,0.14l0.017,0.135
			c0.048,0.051,0.155-0.018,0.217,0.012c0.219,0.104,0.034,0.357,0.127,0.518c-0.166,0.186-0.586,0.06-0.431,0.364
			c0.044,0.086,0.185,0.153,0.161,0.265c-0.022,0.112-0.223,0.174-0.313,0.14c-0.187-0.071-0.201-0.373-0.289-0.521l-0.209-0.239
			c-0.061-0.097-0.022-0.207-0.159-0.244c-0.082,0.09-0.189,0.202-0.175,0.338c0.008,0.064,0.131,0.2,0.124,0.229
			c-0.033,0.137-0.585,0.147-0.691,0.127c-0.001-0.168-0.165-0.224-0.179-0.346c-0.013-0.132,0.266-0.255,0.132-0.375
			c0.122-0.198,0.104-0.426,0.355-0.5c0.214-0.062,0.624,0.051,0.784-0.054"/>
		<path d="M163.489,561.439c0.182,0.039,0.534-0.123,0.68-0.034s0.098,0.23-0.081,0.22c0.056,0.354,0.019,0.462,0.421,0.405
			l-0.104-0.333v-0.322c-0.032-0.192-0.14-0.494-0.293-0.617c-0.138,0.133-0.146,0.475-0.314,0.54
			c-0.06,0.023-0.132-0.106-0.245-0.043c-0.103,0.056-0.154,0.142-0.077,0.236l0.04-0.055"/>
		<path d="M165.325,561.098l-0.324,0.194c0.033,0.351,0.295,0.429,0.562,0.545c-0.092,0.072-0.13,0.181,0,0.231
			c0.136,0.051,0.27-0.204,0.416-0.189c0.157,0.02,0.215,0.189,0.406,0.193c0.144,0.008,0.264-0.107,0.44-0.023l0.105-0.426
			l-0.29-0.125c0.048-0.215,0.249-0.334,0.012-0.539c-0.189-0.162-0.339,0.104-0.478-0.075c-0.234,0.255-0.31,0.038-0.592,0.114
			l-0.045-0.095l-0.212,0.222"/>
		<path d="M167.612,560.75c-0.045,0.146-0.222,0.293-0.256,0.492l0.595-0.055l-0.245,0.229c0.172,0.076,0.03,0.248,0.209,0.354
			c0.091,0.051,0.288-0.017,0.389,0.026l0.21,0.174l-0.119,0.142c0.31,0.182,0.468-0.021,0.683-0.213
			c0.216-0.192,0.257-0.104,0.542-0.07c0.123-0.154,0.424-0.232,0.596-0.176c0.409,0.131,0.022,0.284,0.104,0.526
			c0.161,0.49,1.185-0.131,0.896-0.473c0.113,0.037,0.473-0.001,0.562,0.095c0.149,0.165,0.021,0.455,0.271,0.622
			c0.228-0.182,0.297-0.457,0.298-0.729l-0.066-0.002c0.123-0.104,0.466-0.029,0.636-0.045c0.013-0.226-0.204-0.392-0.414-0.31
			c0.009-0.234,0.302-0.181,0.252-0.457c-0.027-0.151-0.16-0.197-0.295-0.242l-0.181,0.006l-0.127-0.077
			c-0.138-0.019-0.156-0.161-0.248,0.041c-0.079,0.18,0.016,0.188,0.118,0.262c0.112,0.08,0.485,0.078,0.394,0.365
			c-0.026,0.08-0.544,0.198-0.697,0.147c-0.334-0.111-0.007-0.479-0.25-0.666c-0.12-0.093-0.152,0.055-0.266-0.092
			c-0.125-0.161,0.086-0.209-0.169-0.271c-0.316-0.076-0.574,0.279-0.199,0.427c-0.158-0.058-0.303-0.131-0.354,0.069
			c-0.038,0.157,0.184,0.255,0.109,0.414c-0.09,0.19-0.542,0.055-0.697,0.047c-0.235-0.01-0.236,0.095-0.243-0.182
			c-0.003-0.154,0.146-0.388-0.023-0.473c-0.149-0.079-0.163,0.141-0.307-0.029c-0.006-0.006,0.048-0.133,0.036-0.161l-0.142-0.202
			c-0.205,0.23-0.041,0.416-0.344,0.488c-0.116,0.027-0.229-0.1-0.336,0.049c-0.067,0.093-0.042,0.202,0.04,0.286
			c-0.33-0.021-0.302-0.074-0.542-0.277c-0.106-0.089-0.307-0.251-0.394-0.089"/>
		<path d="M173.946,560.127c-0.097,0.106-0.282,0.229-0.275,0.393c0.005,0.134,0.112,0.173,0.158,0.289
			c-0.197,0.066-0.307-0.043-0.47-0.034c-0.195,0.009-0.303,0.165-0.067,0.223c0.097,0.024,0.445-0.053,0.264,0.18
			c-0.061,0.077-0.311,0.119-0.403,0.11c-0.055,0.421,0.781,0.136,0.661,0.385l0.199,0.129c-0.024-0.191,0.126-0.133,0.231-0.117
			l0.156,0.043l0.192-0.15c-0.097-0.238-0.188-0.219,0-0.408c0.002,0.111,0.046,0.549,0.177,0.551
			c0.069,0.001,0.106-0.114,0.176-0.136l0.213,0.031l0.605-0.013c0.138,0.008,0.262,0.089,0.355-0.051
			c-0.09-0.18-0.291-0.156-0.235-0.384l-0.236,0.154c-0.113,0.021-0.354-0.077-0.461-0.133l0.331,0.008
			c-0.143,0.041-0.502,0.122-0.589,0.019c-0.137-0.158,0.017-0.425-0.115-0.591l-0.232,0.133c-0.084-0.137,0.115-0.204,0.057-0.34
			c-0.097-0.217-0.289,0.012-0.411,0.046c-0.041-0.111-0.261-0.572-0.398-0.294"/>
		<path d="M175.46,560.693l-0.177,0.219c0.106-0.009,0.265-0.043,0.389,0.011c-0.101,0.149,0.111,0.233-0.023,0.368
			c0.074-0.153,0.089-0.242,0.234-0.252c0.123-0.011,0.359,0.047,0.494,0.059l-0.1,0.193c0.331-0.244,0.844-0.42,1.232-0.169
			c0.012,0.263-0.316,0.083-0.429,0.089l-0.258,0.073l-0.177-0.069l-0.161,0.081c-0.089,0.021-0.195-0.005-0.252,0.056
			c0.25,0.274,0.263,0.234,0.604,0.197c0.315-0.035,0.653,0.069,0.975,0.076c0.184,0.004,0.416,0.12,0.601,0.073l0.298-0.155
			c0.172-0.028,0.236,0.078,0.399,0.127c-0.084-0.109-0.12-0.176-0.255-0.199c-0.065-0.013-0.271,0.095-0.278-0.086
			c-0.133-0.051-0.26-0.002-0.391-0.011l-0.397-0.135l0.141-0.231c0.145,0.07,0.419,0.33,0.484,0.032l-0.379-0.151l0.066-0.015
			l-0.145,0.033l0.675,0.017c-0.221-0.065-0.481-0.022-0.69-0.111l0.132-0.071l-0.285-0.058h0.023l-1.073,0.037l-1.139-0.041
			l0.015,0.094c-0.073,0.013-0.128-0.025-0.158-0.098l-0.055,0.018"/>
		<path d="M179.15,560.812l0.311,0.079l0.302-0.062c0.228-0.025,0.574-0.004,0.771,0.104c-0.04,0.058-0.017,0.392,0.046,0.456
			c0.078,0.083,0.295,0.022,0.385,0.046c0.058-0.104-0.005-0.635,0.228-0.551c0.219,0.08,0.078,0.479,0.044,0.627
			c0.094-0.015,0.303-0.091,0.395-0.076c0.118,0.021,0.139,0.15,0.269,0.035c-0.018-0.25-0.069-0.481,0.254-0.53l0.29,0.012
			l0.225-0.045c0.189,0.01,0.335,0.179,0.099,0.278c-0.174,0.074-0.479,0.072-0.67,0.064c0.027,0.288,0.037,0.564-0.3,0.56
			l-1.082-0.103l-0.822,0.006l-0.348-0.041c-0.148-0.041-0.138-0.048-0.208-0.188l0.684,0.034l0.374-0.073l-0.139-0.367
			c-0.336,0.057-0.79-0.141-1.086-0.265"/>
		<path d="M181.806,561.771c0.115,0.034,0.233,0.132,0.303,0.219l-0.087,0.108c0.178-0.057,0.275-0.223,0.265-0.413
			c0.208-0.002,0.367,0.145,0.561,0.073l-0.046,0.383c0.054-0.036,0.215-0.231,0.251-0.243c0.188-0.07,0.3,0.004,0.433-0.136
			c-0.086-0.128-0.222-0.201-0.37-0.198c0.07-0.152,0.213-0.281,0.364-0.327c-0.126-0.239-0.381-0.292-0.635-0.289
			c0.165-0.271-0.139-0.366-0.299-0.165c0.278,0.358-0.138,0.303-0.347,0.37c-0.467,0.156-0.177,0.216-0.243,0.622h-0.198
			c-0.023-0.035-0.005-0.064,0.054-0.084"/>
		<path d="M183.738,561.089c0.057,0.281-0.019,0.588-0.025,0.874l0.652-0.058c-0.107-0.174-0.235-0.324-0.427-0.202
			c0.222-0.144,0.264-0.396,0.148-0.619c-0.164-0.01-0.304,0.062-0.439,0.158"/>
		<path d="M184.022,562.399c0.194-0.001,0.463-0.008,0.44,0.239c-0.18-0.029-0.394-0.128-0.548-0.209l0.114-0.111"/>
		<path d="M175.218,561.608c0.158,0.101,0.24,0.283,0.237,0.474c0.134-0.137,0.248-0.538,0.35-0.62"/>
		<path d="M178.011,560.828c0.178,0.022,0.461-0.071,0.697-0.069c-0.118,0.089-0.206,0.212-0.236,0.356
			c-0.162-0.004-0.311-0.046-0.31-0.124"/>
		<path d="M184.397,561.673c0.106-0.112,0.153-0.357,0.272-0.491c-0.075,0.185-0.067,0.396-0.041,0.592
			c0.093-0.038,0.179,0.011,0.263-0.002l0.059,0.234c-0.204,0-0.375-0.092-0.577-0.054"/>
		<path d="M185.28,561.885c0.369-0.102,0.509-0.523,0.588-0.86c-0.058,0.198,0.115,0.646,0.166,0.853
			c0.095-0.058,0.186-0.081,0.255-0.198l-0.062,0.222l0.236-0.131l-0.002,0.153c0.099-0.172,0.423-0.356,0.351,0.022
			c0.271-0.087,0.42,0.124,0.418,0.376c-0.455-0.021-0.864-0.179-1.313-0.082c-0.006,0.211-0.094,0.461-0.25,0.567l-0.058-0.36
			l-0.142,0.26c-0.253-0.243,0.048-0.627-0.222-0.865"/>
		<path d="M186.997,562.704l0.035,0.116l0.293-0.23l0.037,0.067c0.205-0.126,0.307-0.429,0.194-0.621
			c0.245-0.026,0.651,0.012,0.682-0.285l-0.004,0.001c0.219,0.211,0.603,0.211,0.866,0.393c-0.183,0.039-0.383,0.054-0.565,0.004
			c0.629,0.277,1.403,0.334,2.091,0.429c0.574,0.08,1.216-0.133,1.754,0.143c0.003,0.044-0.027,0.214-0.046,0.265
			c-0.356-0.028-1.005-0.228-1.308-0.094c0.367,0.149,0.138,0.456-0.047,0.66c-0.148-0.138-0.173-0.353-0.263-0.544
			c-0.127,0.603-0.515,0.582-0.656-0.018l-0.064,0.139c-0.028-0.076-0.096-0.135-0.08-0.278l-0.054,0.338
			c-0.31-0.181,0.026-0.49-0.543-0.568c-0.772-0.104,0.082,0.359-0.358,0.559l-0.288-0.31c0.028-0.122-0.011-0.175-0.046-0.302
			c-0.104,0.201-0.097,0.459-0.314,0.549l-0.026-0.463c-0.098,0.125-0.146,0.284-0.172,0.443c-0.145-0.086-0.326-0.158-0.515-0.173
			l0.111-0.299c-0.131,0.438-0.424,0.241-0.74,0.355l0.057-0.193"/>
		<path d="M193.371,562.977c-0.239-0.046-0.855-0.302-0.811,0.078c-0.277,0.056-0.596-0.123-0.838,0.045
			c0.044,0.258,0.304,0.278,0.516,0.244c-0.137,0.099-0.318,0.072-0.483,0.097c0.189,0.252,0.764,0.174,1.057,0.24l1.024,0.194
			c-0.104-0.128-0.061-0.283,0.053-0.43c0.245,0.371,0.428-0.271,0.469-0.434c-0.19-0.058-0.309,0.062-0.482,0.057
			c-0.174-0.008-0.328-0.105-0.466-0.084"/>
		<path d="M202.382,566.276c0.41-0.028,1.054,0.176,1.367,0.431c-0.435,0.202-0.802,0.021-1.098-0.245
			c0.024,0.008,0.311,0.16,0.398,0.206c-0.216,0.141-0.169,0.271-0.532,0.254l-0.01,0.393l-0.67-0.557
			c0.076-0.072,0.175-0.258,0.237-0.313l-0.764-0.086"/>
		<path d="M201.166,566.312c-0.087-0.434-0.737-0.305-1.048-0.767c0.069-0.058,0.169-0.206,0.213-0.242
			c-0.383-0.008-0.882-0.013-0.805-0.525c0.805,0.12,1.523,0.422,2.228,0.647l-0.288,0.141c0.136,0.533,0.871,0.208,1.258,0.587
			l-0.317,0.136l0.342,0.104"/>
		<path d="M199.621,564.701c-0.407-0.136-0.828-0.051-1.216-0.239c0.111-0.091,0.211-0.294,0.32-0.381
			c-0.303-0.175-0.826-0.214-1.114,0.015l0.739,0.455l-0.712-0.166c0.01,0.057,0.128,0.146,0.164,0.189
			c0.039,0.039-0.101,0.067-0.079,0.13l0.413,0.134c-0.074,0.025-0.283,0.188-0.357,0.213c0.174,0.079,0.444,0.165,0.634,0.182
			c-0.131-0.267-0.036-0.426-0.039-0.682"/>
		<path d="M197.392,563.977c-0.382,0.08-0.591-0.332-0.92-0.479c-0.184-0.313-0.61-0.061-0.642,0.349
			c-0.122-0.092-0.361-0.292-0.454-0.381c0,0.019,0.078-0.199,0.083-0.221l-0.355-0.095c-0.032-0.393-0.215-0.376-0.467-0.092
			c0.177,0.082,0.235,0.248,0.376,0.349c-0.107,0.047-0.257,0.215-0.339,0.248c0.421,0.358,0.928,0.419,1.486,0.527
			c0.087-0.019-0.078-0.016-0.139-0.026l0.397,0.232l0.281-0.184l0.348,0.168c0.036-0.036,0.176-0.223,0.203-0.268l-0.313-0.243"/>
	</g>
	<g>
		<path d="M192.04,574.211l-0.056,0.143l0.266,0.104c-0.069-0.18-0.126-0.182-0.213-0.186"/>
		<path d="M192.473,574.186c-0.035-0.242,0.118-0.188,0.246-0.066l-0.223,0.057"/>
		<path d="M192.801,573.091c0.025,0.109-0.013,0.126,0.063,0.257c0.065-0.035,0.002-0.103,0.001-0.11"/>
		<path d="M193.076,573.904c0.083,0.083,0.135,0.104,0.177-0.034l-0.105-0.17l-0.095,0.215"/>
		<path d="M193.887,573.585c0.155-0.077,0.251-0.084,0.271-0.346c0.019-0.243-0.12-0.495,0.006-0.623
			c-0.264-0.375,0.172-0.33,0.296-0.177c0.13-0.428,0.56,0.203,0.724,0.653c-0.245-0.028-0.35,0.088-0.489,0.22
			c-0.126,0.121-0.169,0.479-0.371,0.411c-0.213-0.472-0.293,0.111-0.549-0.264"/>
		<path d="M195.279,572.817l0.097,0.245c-0.012-0.172,0.035-0.242,0.159-0.127l-0.05,0.122c0.093,0.045,0.146,0.021,0.208-0.03
			c-0.177-0.311-0.576-0.383-0.367-0.056"/>
		<path d="M195.291,571.695c-0.003,0.108-0.006,0.181,0.073,0.31l0.131-0.062l-0.058-0.135c0.181,0.173,0.32,0.14,0.384-0.007
			c0.02-0.003-0.077-0.086-0.07-0.077l-0.065,0.072c-0.179-0.529-0.222,0.062-0.465-0.129"/>
		<path d="M195.906,572.585c-0.054-0.089-0.047,0.021-0.074-0.082l0.07-0.146c0.054,0.189,0.063,0.185-0.045,0.239l-0.023-0.155"/>
		<path d="M194.607,572.131c0.052-0.156,0.315-0.184,0.438,0.148c0.122,0.334-0.188,0.203-0.231-0.177l-0.161,0.064"/>
		<path d="M196.324,571.719c0.222-0.128,0.101-0.745,0.574-0.389c0.017-0.298,0.057-0.707,0.437-0.268
			c-0.026-0.273,0.152-0.256,0.133-0.5l0.175,0.255c0.093-0.285,0.388-0.097,0.498,0.395l0.283,0.042
			c-0.005,0.194-0.173,0.152-0.211,0.309c-0.033,0.135,0.063,0.439,0.06,0.612c-0.132-0.028-0.288-0.15-0.401-0.36l-0.038,0.132
			l0.06,0.128c-0.062,0.072-0.166,0.068-0.281-0.005l-0.092-0.261c-0.03,0.12-0.13,0.204-0.238,0.191l0.159,0.378l-0.171-0.013
			c0.325,0.506-0.154,0.454-0.376-0.094c-0.14-0.025-0.308-0.133-0.365-0.003c-0.196-0.266-0.177,0.003-0.318-0.052
			c0.06-0.186,0.184-0.246,0.236-0.382L196.324,571.719C196.287,571.585,196.324,571.719,196.324,571.719"/>
		<path d="M195.46,572.319c0.053-0.155,0.081-0.137,0.17-0.201c0.074-0.053,0.059-0.188,0.21-0.089
			c0.135,0.085,0.165,0.152,0.059,0.201l-0.104-0.034l-0.102,0.071c-0.108-0.199-0.165,0.068-0.219,0.103l-0.06-0.087"/>
		<path d="M198.545,571.188c0.06-0.062,0.214-0.256,0.344-0.094c0.004,0.104-0.218,0.271-0.332,0.088"/>
		<path d="M198.271,570.76c0.072,0.024,0.233-0.438,0.355-0.225c0.105,0.185-0.141,0.113-0.176,0.128l-0.143,0.165"/>
		<path d="M198.948,570.909c0.122,0.045,0.173-0.144,0.104-0.323l0.193-0.145l-0.143-0.159c-0.104-0.363,0.106-0.664,0.291-0.707
			c0.198-0.048,0.3,0.168,0.45,0.458c0.061,0.116-0.015,0.074,0.079,0.178l0.205,0.125c0.036,0.313-0.248,0.12-0.414-0.135
			l0.155,0.334c0.035,0.116,0.013,0.063,0.017,0.162c0.01,0.19-0.058,0.222-0.159,0.275l-0.324,0.14
			c-0.144,0.014-0.258-0.078-0.404-0.14"/>
		<path d="M199.663,572.009c0.01,0.26,0.261,0.238,0.372,0.281c-0.097-0.391-0.324-0.325-0.366-0.163"/>
		<path d="M198.304,572.681c0.092,0.075,0.283,0.136,0.172-0.087L198.304,572.681"/>
		<path d="M200.316,570.232c-0.114-0.061-0.089-0.182-0.037-0.228c0.062-0.056,0.12,0.069,0.127-0.067l-0.077-0.265
			c-0.017-0.113,0.021-0.18-0.028-0.312l0.195,0.164c0.078,0.119,0.016,0.188,0.086,0.281c0.148,0.203,0.225-0.11,0.354-0.021
			l-0.147-0.374l-0.059-0.418c0.076,0.12,0.15,0.099,0.218,0.186l0.13,0.34c0.164,0.271,0.101-0.064,0.301,0.118
			c0.073,0.306,0.013,0.188-0.11,0.241c-0.145,0.062-0.053,0.188,0.082,0.411c-0.081,0.01-0.357-0.018-0.461-0.163
			c-0.038,0.086-0.189,0.143-0.049,0.357c-0.108,0.053-0.166-0.026-0.3-0.065c-0.119-0.036-0.181,0.048-0.247-0.204"/>
		<path d="M201.133,568.823c0.118,0.201,0.204,0.468,0.363,0.618c0.029-0.136,0.204-0.009,0.289,0.178
			c0.046,0.1,0.01,0.231-0.009,0.28c-0.056,0.142-0.44-0.161-0.18,0.192c0.236,0.32,0.555,0.142,0.461-0.204
			c-0.06-0.215-0.277-0.296-0.31-0.464c-0.032-0.175,0.165-0.011,0.244,0.067c0.015-0.131,0.108-0.157,0.118-0.271
			c0.01-0.13-0.123-0.359,0.032-0.329c-0.048-0.318-0.198-0.146-0.249-0.11c-0.123-0.396-0.201-0.219-0.398-0.469
			c-0.036,0.192,0.054,0.274-0.137,0.223c-0.095-0.025-0.116-0.136-0.156-0.034c-0.025,0.062-0.002,0.164,0.06,0.246
			c-0.058,0.004-0.126,0.028-0.128,0.104"/>
		<path d="M202.48,568.989c-0.003-0.27,0.185-0.12,0.301-0.217c0.089-0.068,0.107-0.199,0.292-0.028
			c0.025,0.147,0.04,0.267-0.013,0.314c-0.041,0.038-0.133,0.026-0.199-0.075c0.039,0.163,0.01,0.346-0.126,0.05
			c-0.064,0.038-0.235,0.08-0.32-0.122"/>
		<path d="M202.124,568.432c0.082,0.1,0.197,0.146,0.22,0.062c0.02-0.076-0.076-0.199,0.006-0.21c0.06,0.294,0.236,0.06,0.305,0.06
			c0.185-0.007,0.15,0.015,0.191-0.184c0.012-0.062,0.036-0.133,0.094-0.124c-0.232-0.203-0.379-0.191-0.441-0.008
			c-0.021,0.057-0.052,0.192-0.09,0.222l-0.19,0.015l-0.11,0.178"/>
		<path d="M203.323,567.595c0.066-0.064-0.153-0.362-0.18-0.496c-0.021-0.104,0.085-0.267,0.15-0.251
			c0.115,0.027,0.221,0.243,0.268,0.384c0.092,0.271,0.015,0.263-0.122,0.255l0.13,0.108l0.093,0.113l0.067,0.118
			c0.045,0.038,0.065-0.04,0.108-0.022c0.149,0.06,0.175,0.313,0.289,0.441c0.003,0.189-0.253,0.144-0.045,0.392l0.194,0.211
			c0.038,0.104-0.03,0.19-0.089,0.175c-0.122-0.036-0.261-0.303-0.367-0.422l-0.206-0.183c-0.07-0.076-0.101-0.182-0.182-0.193
			c0,0.094-0.002,0.211,0.064,0.329c0.031,0.058,0.149,0.159,0.159,0.188c0.044,0.127-0.215,0.223-0.274,0.22
			c-0.074-0.151-0.176-0.174-0.235-0.283c-0.063-0.115,0.016-0.268-0.101-0.354c-0.029-0.197-0.136-0.397-0.05-0.503
			c0.073-0.088,0.317-0.051,0.348-0.167"/>
		<path d="M203.971,567.557c0.104,0.008,0.2-0.189,0.311-0.132c0.11,0.059,0.15,0.192,0.059,0.208
			c0.185,0.307,0.215,0.408,0.385,0.299l-0.199-0.28l-0.144-0.286c-0.102-0.167-0.287-0.42-0.416-0.507
			c-0.008,0.138,0.141,0.441,0.088,0.524c-0.018,0.03-0.11-0.075-0.136-0.001c-0.023,0.065-0.01,0.15,0.069,0.224l-0.005-0.055"/>
		<path d="M204.701,566.98l-0.068,0.223c0.172,0.308,0.336,0.343,0.509,0.395c-0.01,0.08,0.021,0.186,0.104,0.206
			c0.086,0.021,0.034-0.23,0.108-0.244c0.081-0.013,0.185,0.131,0.274,0.1c0.07-0.02,0.074-0.145,0.193-0.102l-0.142-0.398
			l-0.19-0.061c-0.073-0.199-0.034-0.344-0.235-0.482c-0.16-0.111-0.109,0.155-0.255,0.02c0.006,0.271-0.126,0.091-0.223,0.21
			l-0.062-0.076v0.235"/>
		<path d="M205.604,566.254c0.045,0.139,0.028,0.302,0.102,0.485l0.251-0.155l-0.01,0.25c0.112,0.036,0.124,0.215,0.254,0.277
			c0.064,0.028,0.126-0.066,0.192-0.047l0.175,0.117l0.008,0.147c0.224,0.104,0.206-0.104,0.221-0.314
			c0.014-0.211,0.072-0.139,0.219-0.162c-0.011-0.157,0.093-0.283,0.192-0.272c0.24,0.026,0.138,0.25,0.282,0.449
			c0.289,0.402,0.467-0.374,0.187-0.617c0.066,0.007,0.209-0.104,0.291-0.038c0.141,0.115,0.213,0.401,0.398,0.498
			c0.02-0.213-0.072-0.475-0.194-0.72l-0.029,0.013c0.008-0.119,0.193-0.127,0.263-0.177c-0.096-0.205-0.265-0.307-0.322-0.188
			c-0.101-0.212,0.054-0.227-0.091-0.463c-0.08-0.131-0.16-0.144-0.239-0.153l-0.078,0.045l-0.091-0.043
			c-0.069,0.016-0.142-0.109-0.092,0.091c0.044,0.179,0.09,0.165,0.169,0.209c0.086,0.048,0.25-0.036,0.337,0.241
			c0.024,0.077-0.152,0.296-0.243,0.284c-0.198-0.026-0.216-0.427-0.408-0.542c-0.095-0.057-0.043,0.082-0.159-0.023
			c-0.127-0.117-0.055-0.205-0.196-0.206c-0.175-0.001-0.13,0.374,0.103,0.425c-0.096-0.017-0.193-0.051-0.127,0.139
			c0.054,0.15,0.196,0.189,0.233,0.347c0.045,0.19-0.216,0.168-0.289,0.192c-0.113,0.034-0.067,0.128-0.193-0.117
			c-0.07-0.138-0.105-0.373-0.223-0.42c-0.104-0.042-0.013,0.156-0.154,0.03c-0.005-0.004-0.037-0.127-0.056-0.149l-0.155-0.155
			c0.008,0.243,0.167,0.379,0.059,0.5c-0.042,0.045-0.15-0.048-0.134,0.104c0.011,0.095,0.071,0.188,0.146,0.248
			c-0.162,0.042-0.173-0.011-0.375-0.149c-0.089-0.06-0.254-0.168-0.222-0.008"/>
		<path d="M206.961,566.498c0.113-0.021,0.264-0.018,0.397-0.11c0.109-0.077,0.112-0.142,0.197-0.226
			c0.108,0.042,0.047,0.146,0.098,0.208c0.06,0.073,0.218,0.03,0.203-0.097c-0.006-0.053-0.164-0.15,0.078-0.207
			c0.08-0.019,0.183,0.061,0.201,0.104c0.365-0.211-0.1-0.396,0.139-0.484l0.052-0.154c-0.152,0.118-0.145,0.021-0.16-0.029
			l-0.009-0.088l-0.177,0.007c-0.169,0.174-0.129,0.2-0.335,0.231c0.091-0.063,0.438-0.331,0.398-0.382l-0.165,0.008l-0.04-0.101
			l-0.194-0.229c-0.037-0.057-0.01-0.152-0.15-0.107c-0.118,0.141-0.039,0.204-0.24,0.314h0.197
			c0.053,0.031,0.045,0.182,0.031,0.254l-0.094-0.131c0.076,0.031,0.253,0.123,0.194,0.215c-0.089,0.143-0.354,0.236-0.45,0.383
			l0.178,0.014c-0.089,0.109-0.199,0.069-0.295,0.171c-0.151,0.159,0.087,0.106,0.148,0.138c-0.081,0.079-0.404,0.426-0.138,0.323"
			/>
		<path d="M206.997,565.591l0.231-0.06c-0.039-0.035-0.114-0.075-0.108-0.153c0.152-0.048,0.156-0.178,0.308-0.204
			c-0.147,0.062-0.225,0.105-0.277,0.058l-0.102-0.224l0.188-0.076c-0.299,0.017-0.594-0.073-0.51-0.373
			c0.206-0.159,0.162,0.072,0.201,0.111l0.137,0.057l-0.002,0.107l0.114,0.015l0.122,0.063c0.146-0.256,0.109-0.238-0.025-0.35
			c-0.125-0.101-0.145-0.293-0.237-0.423c-0.053-0.071-0.031-0.232-0.125-0.276l-0.215-0.021c-0.074-0.049-0.01-0.14-0.021-0.231
			c-0.062,0.1-0.103,0.153-0.08,0.221c0.01,0.033,0.156,0.047,0.017,0.16l0.11,0.156l0.013,0.232l-0.227,0.086
			c0.013-0.098,0.136-0.359-0.121-0.204l-0.007,0.236l-0.031-0.018l0.07,0.034l-0.19-0.266c0.014,0.124,0.127,0.196,0.119,0.329
			l-0.097-0.007l0.04,0.143l-0.007-0.01l0.351,0.385l0.308,0.455l0.072-0.061c0.032,0.021,0.018,0.063-0.031,0.115l0.029,0.012"/>
		<path d="M205.987,564.123l-0.036-0.162l-0.149-0.068c-0.095-0.063-0.193-0.2-0.173-0.34c0.058-0.021,0.31-0.237,0.339-0.303
			c0.04-0.081-0.083-0.117-0.098-0.163c-0.102,0.047-0.489,0.403-0.506,0.271c-0.016-0.125,0.34-0.329,0.468-0.412
			c-0.045-0.022-0.178-0.047-0.199-0.087c-0.026-0.054,0.066-0.145-0.068-0.114c-0.186,0.166-0.347,0.331-0.497,0.252l-0.093-0.105
			l-0.114-0.047c-0.059-0.068,0.019-0.229,0.179-0.213c0.118,0.013,0.225,0.117,0.286,0.188c0.211-0.194,0.419-0.375,0.536-0.256
			l0.308,0.438l0.281,0.295l0.086,0.15c0.018,0.08,0.009,0.08-0.079,0.192l-0.202-0.269l-0.183-0.089l-0.24,0.279
			c0.154,0.086,0.157,0.364,0.149,0.553"/>
		<path d="M205.827,562.586l0.06-0.245l0.115-0.04c-0.108-0.024-0.271,0.048-0.411,0.174c-0.075-0.069-0.021-0.219-0.144-0.239
			l0.307-0.231c-0.048,0.005-0.253,0.075-0.275,0.071c-0.12-0.021-0.104-0.106-0.256-0.062c-0.067,0.113-0.074,0.207-0.02,0.256
			c-0.142,0.076-0.289,0.11-0.378,0.09c-0.136,0.197-0.088,0.318,0.004,0.402c-0.263,0.118-0.23,0.282-0.021,0.207
			c0.176-0.326,0.279-0.147,0.405-0.121c0.285,0.06,0.228-0.077,0.562-0.313l0.071,0.067l-0.083,0.035"/>
		<path d="M204.622,562.365l0.669-0.562l-0.293-0.173c-0.089,0.148-0.153,0.287,0.013,0.27c-0.192,0.021-0.398,0.175-0.522,0.355
			c0.058,0.058,0.162,0.056,0.281,0.041"/>
		<path d="M205.502,561.418c-0.077-0.062-0.187-0.146,0.007-0.301l0.059,0.313l-0.129,0.037"/>
		<path d="M207.818,565.156c0.034-0.119,0.158-0.258,0.313-0.365c-0.154,0.026-0.516,0.215-0.613,0.223"/>
		<path d="M206.341,564.545c-0.035-0.081-0.195-0.131-0.265-0.222l0.354-0.128c0.046,0.063,0.058,0.146-0.006,0.192"/>
		<path d="M204.812,561.773c-0.125,0.039-0.328,0.187-0.473,0.235l0.458-0.375l-0.104-0.082l0.152-0.174
			c0.079,0.065,0.077,0.18,0.185,0.219"/>
		<path d="M204.627,561.354c-0.217-0.05-0.584,0.188-0.864,0.391c0.17-0.115,0.436-0.469,0.567-0.622
			c-0.078,0.009-0.131-0.004-0.244,0.052l0.186-0.127l-0.188,0.014l0.115-0.104c-0.165,0.084-0.425,0.107-0.119-0.125
			c-0.167-0.027-0.07-0.216,0.114-0.387c0.162,0.156,0.203,0.394,0.449,0.472c0.157-0.139,0.377-0.278,0.518-0.3l-0.245,0.26
			l0.247-0.127c-0.081,0.242-0.482,0.401-0.555,0.645"/>
		<path d="M204.565,560.259l0.071-0.091l-0.282,0.064l0.035-0.06c-0.172,0.021-0.432,0.195-0.528,0.361
			c-0.113-0.06-0.242-0.213-0.469-0.019h0.003c0.069-0.213-0.101-0.312-0.084-0.511c0.106,0.022,0.204,0.067,0.246,0.153
			c-0.071-0.363-0.365-0.617-0.594-0.871c-0.191-0.213-0.614-0.236-0.651-0.578c0.028-0.031,0.16-0.144,0.203-0.174
			c0.133,0.117,0.273,0.434,0.496,0.424c-0.053-0.205,0.261-0.359,0.484-0.45c-0.032,0.139-0.173,0.296-0.269,0.454
			c0.478-0.386,0.634-0.262,0.271,0.193l0.126-0.078c-0.042,0.061-0.055,0.12-0.164,0.217l0.263-0.22
			c0.007,0.211-0.358,0.333-0.168,0.544c0.26,0.285,0.221-0.271,0.553-0.285l-0.096,0.293l-0.196,0.22
			c0.188-0.107,0.371-0.288,0.528-0.286l-0.321,0.324l0.391-0.253c-0.006,0.105,0.012,0.214,0.075,0.284l-0.26,0.168
			c0.367-0.256,0.34-0.029,0.547-0.004l-0.163,0.113"/>
		<path d="M202.039,558.283c0.079,0.092,0.188,0.42,0.429,0.142c0.158,0.035,0.17,0.249,0.392,0.196
			c0.161-0.193,0.063-0.279-0.052-0.314c0.128-0.03,0.188,0.037,0.275,0.066c0.093-0.23-0.204-0.34-0.302-0.452l-0.346-0.39
			c-0.038,0.117-0.164,0.217-0.316,0.295c0.139-0.325-0.381,0.09-0.51,0.197c0.048,0.086,0.183,0.028,0.259,0.074
			c0.076,0.046,0.08,0.153,0.159,0.171"/>
		<path d="M199.679,554.04c-0.239-0.042-0.465-0.292-0.482-0.534c0.356-0.09,0.448,0.105,0.448,0.354
			c-0.009-0.011-0.072-0.17-0.093-0.219c0.202-0.072,0.255-0.181,0.442-0.109l0.241-0.295l0.031,0.526
			c-0.086,0.042-0.252,0.166-0.32,0.197l0.365,0.186"/>
		<path d="M200.363,554.204c-0.221,0.339,0.225,0.338,0.096,0.739c-0.07,0.028-0.214,0.119-0.26,0.14
			c0.187,0.079,0.436,0.183,0.069,0.548c-0.312-0.258-0.524-0.582-0.768-0.856l0.242-0.062c0.252-0.419-0.347-0.287-0.325-0.631
			l0.254-0.055l-0.122-0.131"/>
		<path d="M200.172,555.67c0.117,0.179,0.383,0.198,0.457,0.412l-0.406,0.219c0.039,0.188,0.274,0.316,0.568,0.205l-0.078-0.477
			l0.251,0.261l0.04-0.171l0.124-0.079l-0.122-0.181c0.054-0.005,0.264-0.08,0.317-0.084l-0.204-0.261
			c-0.104,0.222-0.254,0.318-0.418,0.509"/>
		<path d="M200.823,556.637c0.241,0.021,0.091,0.351,0.141,0.535c-0.123,0.271,0.239,0.188,0.528-0.102
			c-0.005,0.096-0.029,0.299-0.046,0.385c0.011-0.013-0.17,0.125-0.187,0.14l0.1,0.153c-0.249,0.289-0.156,0.32,0.152,0.176
			c-0.025-0.102,0.06-0.234,0.062-0.34c0.081-0.008,0.265-0.094,0.324-0.098c0.048-0.359-0.147-0.527-0.333-0.741
			c-0.053-0.008,0.025,0.03,0.046,0.054l-0.03-0.266l-0.259,0.074l-0.066-0.191c-0.042,0.02-0.234,0.127-0.276,0.154l-0.001,0.237"
			/>
	</g>
</g>
<g>
	<path d="M37.792,547.85h7.959c0.902,0,1.764,0.352,2.583,1.052c1.042,0.934,1.562,2.19,1.562,3.773
		c0,2.102-0.924,3.759-2.771,4.977c1.694,0.398,2.909,1.041,3.646,1.925c0.833,0.982,1.25,2.434,1.25,4.35
		c0,1.284-0.466,2.542-1.396,3.775c-1.153,1.533-2.604,2.3-4.354,2.3h-8.479v-0.45c1.125,0,1.736-0.857,1.834-2.575
		c0.041-0.683,0.072-1.646,0.094-2.887c0.021-1.242,0.038-2.771,0.052-4.588c0-1.733-0.011-3.267-0.031-4.6
		c-0.021-1.334-0.045-2.477-0.073-3.427c-0.083-2.198-0.708-3.291-1.875-3.273L37.792,547.85L37.792,547.85z M41.313,558.775
		c0.014,1,0.021,2,0.021,3s0,2.008,0,3.023c0.042,2.634,0.167,3.967,0.375,4l0.688,0.075c0.277,0.033,0.552,0.062,0.823,0.088
		c0.271,0.024,0.538,0.037,0.802,0.037c1.639,0,2.972-0.35,4-1.05c1.417-0.983,2.118-2.583,2.104-4.8
		c-0.015-1.566-0.646-2.75-1.896-3.552c-1.014-0.648-2.201-0.958-3.562-0.925c-0.931,0.034-1.674,0.056-2.229,0.062
		C41.883,558.746,41.508,558.759,41.313,558.775z M48.188,552.55c-0.028-0.883-0.39-1.716-1.084-2.5c-0.694-0.8-1.416-1.2-2.166-1.2
		c-0.848,0-1.566,0.01-2.156,0.025c-0.591,0.017-1.046,0.042-1.365,0.075l-0.041,8.45h3.25c0.819,0,1.597-0.4,2.333-1.2
		C47.82,555.25,48.229,554.033,48.188,552.55z"/>
	<path d="M72.584,558.425c0,3.167-0.806,5.909-2.417,8.227c-1.777,2.55-4.125,3.823-7.041,3.823c-2.931,0-5.229-1.198-6.896-3.6
		c-1.514-2.166-2.271-4.916-2.271-8.25c0-3.184,0.944-5.833,2.833-7.95c1.889-2.148,4.209-3.225,6.959-3.225
		c2.93,0,5.201,1.175,6.812,3.523C71.91,552.959,72.584,555.441,72.584,558.425z M70.584,558.7c0-3.268-0.653-5.768-1.958-7.5
		c-1.292-1.75-3.056-2.625-5.292-2.625c-1.973,0-3.674,0.898-5.104,2.7c-1.597,1.967-2.396,4.559-2.396,7.773
		c0,3.25,0.819,5.81,2.458,7.675c1.444,1.635,3.188,2.45,5.229,2.45c1.777,0,3.34-0.833,4.688-2.5
		C69.792,564.725,70.584,562.066,70.584,558.7z"/>
	<path d="M92.584,558.425c0,3.167-0.806,5.909-2.417,8.227c-1.777,2.55-4.125,3.823-7.041,3.823c-2.931,0-5.229-1.198-6.896-3.6
		c-1.514-2.166-2.271-4.916-2.271-8.25c0-3.184,0.944-5.833,2.833-7.95c1.889-2.148,4.209-3.225,6.959-3.225
		c2.93,0,5.201,1.175,6.812,3.523C91.91,552.959,92.584,555.441,92.584,558.425z M90.584,558.7c0-3.268-0.653-5.768-1.958-7.5
		c-1.292-1.75-3.056-2.625-5.292-2.625c-1.973,0-3.674,0.898-5.104,2.7c-1.597,1.967-2.396,4.559-2.396,7.773
		c0,3.25,0.819,5.81,2.458,7.675c1.444,1.635,3.188,2.45,5.229,2.45c1.777,0,3.34-0.833,4.688-2.5
		C89.792,564.725,90.584,562.066,90.584,558.7z"/>
	<path d="M109.479,547.85v3.825h-0.291c-0.195-1.616-0.966-2.433-2.312-2.45h-4.334c0-0.133,0,0.413,0,1.639
		s-0.007,3.138-0.021,5.736c-0.014,2.584-0.021,4.672-0.021,6.264s0,2.695,0,3.312c0,2.352,0.652,3.467,1.958,3.352V570H99v-0.475
		c0.139,0.032,0.242,0.05,0.312,0.05c0.916,0,1.389-0.9,1.416-2.7l-0.041-17.65h-4.729c-0.973,0-1.591,0.76-1.854,2.275H93.75v-3.65
		H109.479z"/>
	<path d="M116.333,547.85v0.477c-0.5,0-0.875,0.065-1.125,0.2c-0.542,0.282-0.812,0.892-0.812,1.823
		c0,9.834,0.021,15.609,0.062,17.325c0.027,0.733,0.347,1.259,0.958,1.575c0.25,0.15,0.556,0.25,0.917,0.3V570h-5.375v-0.425
		c1.139-0.05,1.722-0.8,1.75-2.25l-0.021-17.102c-0.015-0.865-0.292-1.458-0.834-1.773c-0.347-0.2-0.646-0.275-0.896-0.227v-0.375
		L116.333,547.85L116.333,547.85z"/>
	<path d="M131.208,547.85l-0.125,3.65h-0.458c-0.042-1.75-0.681-2.625-1.917-2.625l-6.271-0.025l-0.104,8.75
		c1.444,0.019,2.66,0.025,3.646,0.025c0.985,0,1.75-0.017,2.291-0.05c0.667-0.033,1.111-0.333,1.334-0.9
		c0.152-0.383,0.208-0.716,0.166-1h0.479v5.025h-0.479c-0.027-1.3-0.486-1.95-1.375-1.95l-6.062,0.025c0-0.052,0,0.296,0,1.037
		s0.007,1.888,0.021,3.438v5.4c0.305,0.133,2.61,0.198,6.916,0.198c1.153,0,1.757-0.683,1.812-2.05c0.167,0.034,0.312,0.034,0.438,0
		c-0.014,0.534-0.024,1.067-0.031,1.602c-0.007,0.533-0.018,1.065-0.031,1.6h-12.729l0.021-0.475
		c1.277-0.135,1.917-0.677,1.917-1.625c0-4.268-0.008-7.879-0.021-10.838c-0.014-2.959-0.034-5.312-0.062-7.062
		c-0.014-0.633-0.306-1.116-0.875-1.45c-0.25-0.133-0.534-0.225-0.854-0.273v-0.427H131.208z"/>
	<path d="M31.729,590.85c1.389,0.019,3,0.019,4.833,0c0.014,0.584,0.014,1.159,0,1.727h-4.833V590.85z"/>
	<path d="M44.542,577.85v0.427c-1.264,0.198-1.91,1.142-1.938,2.823c-0.028,3.302-0.035,6.33-0.021,9.088
		c0.014,2.76,0.055,5.287,0.125,7.589c0.027,0.648,0.298,0.982,0.812,1c1.68,0.133,3.159,0.184,4.438,0.148
		c0.902-0.033,1.521-0.458,1.854-1.273c0.125-0.316,0.201-0.733,0.229-1.25h0.396v3.6h-11.52v-0.475
		c0.333,0.032,0.646-0.033,0.938-0.2c0.472-0.268,0.75-0.727,0.833-1.375c0.056-0.566,0.118-3.208,0.188-7.925
		c0.028-2.302,0.042-4.209,0.042-5.727c0-1.517-0.007-2.658-0.021-3.425c-0.042-1.767-0.702-2.633-1.979-2.6v-0.427L44.542,577.85
		L44.542,577.85z"/>
	<path d="M57.229,577.85v0.477c-0.5,0-0.875,0.065-1.125,0.2c-0.542,0.282-0.812,0.892-0.812,1.823
		c0,9.834,0.021,15.609,0.062,17.325c0.027,0.733,0.347,1.259,0.958,1.575c0.25,0.15,0.556,0.25,0.917,0.3V600h-5.375v-0.425
		c1.139-0.05,1.722-0.8,1.75-2.25l-0.021-17.102c-0.015-0.865-0.292-1.458-0.834-1.773c-0.347-0.2-0.646-0.275-0.896-0.227v-0.375
		L57.229,577.85L57.229,577.85z"/>
	<path d="M73.458,582.65H73.02c-0.111-0.802-0.333-1.459-0.667-1.977c-0.833-1.333-2.229-2-4.188-2
		c-2.194,0-3.979,1.117-5.354,3.352c-1.181,1.916-1.771,4.032-1.771,6.35c0,2.85,0.514,5.242,1.542,7.175
		c1.333,2.467,3.368,3.7,6.104,3.7c2.069,0,3.791-0.8,5.166-2.4h0.271v2.125c-1.403,1.033-3.278,1.533-5.625,1.5
		c-2.486,0-4.591-0.841-6.312-2.523c-2.07-2.05-3.104-5.066-3.104-9.05c0-3.552,1.042-6.4,3.125-8.552
		c1.889-1.966,4.194-2.948,6.917-2.948c1.791,0,3.235,0.541,4.333,1.625L73.458,582.65L73.458,582.65z"/>
	<path d="M81.791,577.85v0.477c-0.5,0-0.875,0.065-1.125,0.2c-0.542,0.282-0.812,0.892-0.812,1.823
		c0,9.834,0.021,15.609,0.062,17.325c0.027,0.733,0.347,1.259,0.958,1.575c0.25,0.15,0.556,0.25,0.917,0.3V600h-5.375v-0.425
		c1.139-0.05,1.722-0.8,1.75-2.25l-0.021-17.102c-0.015-0.865-0.292-1.458-0.834-1.773c-0.347-0.2-0.646-0.275-0.896-0.227v-0.375
		L81.791,577.85L81.791,577.85z"/>
	<path d="M102.396,588.425c0,3.167-0.806,5.909-2.417,8.227c-1.777,2.55-4.125,3.823-7.041,3.823c-2.931,0-5.229-1.198-6.896-3.6
		c-1.514-2.166-2.271-4.916-2.271-8.25c0-3.184,0.944-5.833,2.833-7.95c1.889-2.148,4.209-3.225,6.959-3.225
		c2.93,0,5.201,1.175,6.812,3.523C101.722,582.959,102.396,585.441,102.396,588.425z M100.396,588.7c0-3.268-0.653-5.768-1.958-7.5
		c-1.292-1.75-3.056-2.625-5.292-2.625c-1.973,0-3.674,0.898-5.104,2.7c-1.597,1.967-2.396,4.559-2.396,7.773
		c0,3.25,0.819,5.81,2.458,7.675c1.444,1.635,3.188,2.45,5.229,2.45c1.777,0,3.34-0.833,4.688-2.5
		C99.604,594.725,100.396,592.066,100.396,588.7z"/>
	<path d="M120.354,577.85c-0.027,5.784-0.038,10.302-0.031,13.552c0.007,3.25,0.024,5.232,0.053,5.948
		c0.083,1.45,0.722,2.15,1.916,2.102V600h-3.708l0.021-3.5c-1.361,1.3-2.396,2.2-3.104,2.7c-1.25,0.85-2.535,1.273-3.854,1.273
		c-2.208,0-3.903-0.69-5.083-2.073c-1.125-1.316-1.688-3.191-1.688-5.625c0-1-0.004-2.097-0.011-3.288
		c-0.007-1.191-0.018-2.504-0.031-3.938c-0.014-1.45-0.024-2.558-0.031-3.325c-0.007-0.766-0.011-1.208-0.011-1.323
		c0-1.65-0.59-2.533-1.771-2.65v-0.4h3.688c-0.028,3.718-0.052,6.7-0.073,8.95s-0.031,3.8-0.031,4.65c0,2.05,0.326,3.717,0.979,5
		c0.833,1.583,2.146,2.375,3.938,2.375c1.819,0,3.444-0.685,4.875-2.05c1.444-1.385,2.174-2.875,2.188-4.477
		c0.014-2.133,0.024-4.096,0.031-5.888c0.007-1.791,0.011-3.445,0.011-4.962c0-1.366-0.223-2.292-0.667-2.775
		c-0.236-0.232-0.611-0.375-1.125-0.425v-0.4L120.354,577.85L120.354,577.85z"/>
	<path d="M131.416,577.4c1.292,0.032,2.334,0.217,3.125,0.55c0.348,0.148,0.632,0.333,0.854,0.55v4.825l-0.417-0.05
		c-0.027-0.185-0.062-0.363-0.104-0.538s-0.077-0.354-0.104-0.537c-0.278-0.866-0.653-1.592-1.125-2.175
		c-0.694-0.816-1.549-1.26-2.562-1.325c-1.028-0.066-1.966,0.158-2.812,0.675c-1.181,0.717-1.771,1.925-1.771,3.625
		c0,1.267,0.507,2.25,1.521,2.95c0.652,0.45,1.889,0.94,3.708,1.475c1.278,0.367,2.41,1.075,3.396,2.125
		c1.125,1.2,1.688,2.584,1.688,4.15c0,2.083-0.695,3.75-2.084,5c-1.277,1.167-2.861,1.75-4.75,1.75
		c-2.125,0-4.049-0.625-5.771-1.875v-4.727h0.479c0.083,1.552,0.75,2.867,2,3.95c1.069,0.935,2.166,1.4,3.291,1.4
		c1.084,0,2.098-0.393,3.042-1.175c1.152-0.95,1.729-2.218,1.729-3.802c0-1.333-0.39-2.466-1.167-3.398
		c-0.694-0.866-1.632-1.45-2.812-1.75c-1.861-0.483-3.285-1.102-4.271-1.852c-1.361-1.032-2.049-2.375-2.062-4.023
		c-0.015-2.102,0.847-3.667,2.583-4.7C128.312,577.75,129.777,577.384,131.416,577.4z"/>
</g>
</svg>
